<svg xmlns="http://www.w3.org/2000/svg" xmlns:xlink="http://www.w3.org/1999/xlink" width="500" zoomAndPan="magnify" viewBox="0 0 375 374.999991" height="500" preserveAspectRatio="xMidYMid meet" version="1.0"><defs><clipPath id="id1"><path d="M 3 4.644531 L 369 4.644531 L 369 370.644531 L 3 370.644531 Z M 3 4.644531 " clip-rule="nonzero"/></clipPath></defs><g clip-path="url(#id1)"><path fill="#7e09dc" d="M 364.78125 217.234375 C 357.835938 188.699219 340.9375 163.496094 317.207031 146.273438 C 294.613281 129.886719 267.105469 121.585938 239.429688 122.734375 C 226.667969 95.335938 204.457031 73.6875 176.503906 61.535156 C 173.757812 60.34375 170.570312 61.601562 169.378906 64.34375 C 168.1875 67.089844 169.445312 70.285156 172.1875 71.476562 C 198.773438 83.035156 219.675781 103.996094 231.042969 130.496094 C 233.53125 136.300781 235.546875 142.34375 237.035156 148.457031 C 237.429688 150.082031 237.792969 151.757812 238.148438 153.566406 L 238.148438 153.570312 C 243.574219 181.261719 238.46875 209.820312 223.785156 233.984375 C 209.898438 256.824219 188.59375 273.859375 163.4375 282.347656 C 162.984375 281.3125 162.550781 280.269531 162.136719 279.21875 C 162.128906 279.203125 162.125 279.195312 162.121094 279.183594 C 161.324219 277.164062 160.605469 275.101562 159.953125 273.019531 C 159.902344 272.851562 159.847656 272.6875 159.800781 272.519531 C 159.5 271.535156 159.210938 270.542969 158.945312 269.550781 L 158.925781 269.476562 C 206.238281 253.585938 234.851562 204.289062 224.519531 154.894531 L 224.519531 154.890625 C 224.261719 153.675781 224.035156 152.652344 223.796875 151.683594 C 221.996094 144.304688 219.375 137.148438 215.984375 130.417969 C 215.980469 130.40625 215.972656 130.390625 215.964844 130.378906 C 215.941406 130.332031 215.917969 130.289062 215.894531 130.246094 C 205.949219 110.589844 189.449219 94.582031 169.40625 85.171875 C 159.796875 80.65625 149.542969 77.75 139.085938 76.5 L 177.558594 40.71875 C 179.507812 38.90625 179.851562 35.941406 178.367188 33.730469 L 178.34375 33.691406 C 178.339844 33.691406 178.339844 33.6875 178.339844 33.6875 L 160.554688 7.1875 C 159.550781 5.6875 157.867188 4.789062 156.058594 4.789062 L 98.417969 4.789062 C 96.617188 4.789062 94.929688 5.6875 93.921875 7.1875 L 76.113281 33.730469 C 74.625 35.941406 74.972656 38.90625 76.921875 40.71875 L 115.390625 76.5 C 111.472656 76.96875 107.570312 77.664062 103.714844 78.601562 C 50.476562 91.582031 17.714844 145.484375 30.683594 198.761719 C 36.027344 220.730469 48.828125 240.382812 66.722656 254.109375 C 83.164062 266.722656 103.289062 273.925781 123.84375 274.636719 C 123.941406 275.058594 124.042969 275.480469 124.144531 275.902344 C 124.382812 276.886719 124.644531 277.871094 124.902344 278.851562 C 124.96875 279.078125 125.03125 279.308594 125.097656 279.535156 C 125.308594 280.316406 125.53125 281.097656 125.761719 281.871094 C 125.824219 282.089844 125.890625 282.300781 125.957031 282.519531 C 126.207031 283.34375 126.464844 284.171875 126.734375 284.992188 C 126.777344 285.132812 126.824219 285.277344 126.871094 285.417969 C 127.191406 286.390625 127.519531 287.359375 127.863281 288.320312 C 104.042969 288.441406 80.578125 280.972656 61.070312 266.894531 C 39.300781 251.175781 23.804688 228.128906 17.441406 201.988281 C 11.089844 175.902344 14.230469 148.34375 26.289062 124.398438 C 38.207031 100.71875 58.089844 81.917969 82.269531 71.460938 C 85.011719 70.273438 86.277344 67.085938 85.089844 64.339844 C 83.90625 61.589844 80.714844 60.324219 77.972656 61.511719 C 51.464844 72.976562 29.675781 93.578125 16.613281 119.523438 C 3.402344 145.769531 -0.0390625 175.964844 6.921875 204.554688 C 13.894531 233.199219 30.875 258.457031 54.734375 275.683594 C 75.914062 290.96875 101.351562 299.15625 127.210938 299.15625 C 128.894531 299.15625 130.582031 299.113281 132.265625 299.042969 C 152.597656 342.605469 196.695312 370.5 244.464844 370.5 C 254.140625 370.5 263.96875 369.355469 273.773438 366.96875 C 340.121094 350.792969 380.945312 283.625 364.78125 217.234375 Z M 233.039062 239.617188 C 247.960938 215.0625 253.847656 186.367188 249.886719 158.121094 C 267.511719 159.21875 284.683594 165.652344 298.75 176.5625 C 314.726562 188.945312 325.703125 205.902344 330.5 225.59375 C 342.054688 273.066406 312.863281 321.089844 265.421875 332.65625 C 242.445312 338.261719 218.660156 334.570312 198.449219 322.273438 C 185.941406 314.664062 175.730469 304.308594 168.441406 292.078125 C 195.339844 282.609375 218.113281 264.175781 233.039062 239.617188 Z M 156.75 258.757812 C 153.988281 239.039062 157.90625 219.070312 168.109375 201.695312 C 178.78125 183.511719 195.265625 169.957031 214.941406 163.027344 C 220.742188 204.554688 196.273438 244.8125 156.75 258.757812 Z M 101.304688 15.625 L 153.175781 15.625 L 163.6875 31.296875 L 90.796875 31.296875 Z M 94.34375 42.132812 L 160.136719 42.132812 L 127.238281 72.726562 Z M 121.804688 263.671875 C 104.34375 262.597656 87.324219 256.257812 73.3125 245.507812 C 57.140625 233.101562 46.039062 216.050781 41.203125 196.195312 C 29.652344 148.726562 58.839844 100.695312 106.28125 89.132812 C 126.125 84.292969 146.359375 86.316406 164.808594 94.980469 C 180.789062 102.488281 194.230469 114.695312 203.230469 129.71875 C 175.4375 139.496094 152.195312 158.734375 137.296875 184.464844 C 123.316406 208.625 117.964844 236.339844 121.804688 263.671875 Z M 271.210938 356.4375 C 262.257812 358.617188 253.296875 359.660156 244.46875 359.660156 C 199.5 359.660156 158.085938 332.558594 140.386719 290.628906 C 140.191406 290.171875 140 289.710938 139.8125 289.253906 C 139.734375 289.0625 139.660156 288.878906 139.589844 288.691406 C 139.359375 288.117188 139.128906 287.539062 138.910156 286.957031 C 138.875 286.875 138.84375 286.78125 138.8125 286.695312 C 138.558594 286.03125 138.308594 285.359375 138.070312 284.6875 C 138.0625 284.667969 138.054688 284.640625 138.046875 284.621094 C 137.789062 283.898438 137.535156 283.167969 137.292969 282.433594 C 137.292969 282.429688 137.289062 282.425781 137.289062 282.421875 C 137.039062 281.679688 136.800781 280.933594 136.570312 280.1875 C 136.550781 280.136719 136.539062 280.082031 136.519531 280.03125 C 136.304688 279.332031 136.097656 278.636719 135.894531 277.9375 C 135.828125 277.710938 135.769531 277.476562 135.703125 277.25 C 135.550781 276.722656 135.40625 276.191406 135.261719 275.660156 C 135.058594 274.890625 134.859375 274.117188 134.671875 273.335938 C 134.476562 272.542969 134.292969 271.746094 134.121094 270.957031 C 134.054688 270.648438 133.988281 270.332031 133.921875 270.019531 C 133.84375 269.65625 133.769531 269.296875 133.699219 268.933594 C 133.648438 268.695312 133.601562 268.464844 133.554688 268.222656 C 133.546875 268.191406 133.539062 268.164062 133.53125 268.128906 C 128.300781 241.277344 132.894531 213.699219 146.671875 189.898438 C 160.523438 165.976562 182.273438 148.203125 208.261719 139.445312 C 210.089844 143.597656 211.597656 147.902344 212.777344 152.316406 C 190.054688 159.925781 171.007812 175.359375 158.773438 196.203125 C 146.175781 217.65625 142.113281 242.636719 147.191406 266.890625 C 147.191406 266.894531 147.191406 266.894531 147.191406 266.894531 C 147.191406 266.90625 147.195312 266.917969 147.195312 266.925781 C 147.289062 267.355469 147.378906 267.789062 147.472656 268.214844 C 147.617188 268.882812 147.765625 269.503906 147.90625 270.105469 C 148.125 270.984375 148.351562 271.859375 148.585938 272.726562 C 148.648438 272.941406 148.710938 273.152344 148.769531 273.371094 C 148.957031 274.042969 149.148438 274.714844 149.351562 275.386719 C 149.410156 275.585938 149.476562 275.789062 149.539062 275.988281 C 149.753906 276.691406 149.980469 277.398438 150.210938 278.097656 C 150.261719 278.238281 150.304688 278.378906 150.355469 278.515625 C 150.625 279.328125 150.910156 280.128906 151.203125 280.925781 C 151.210938 280.957031 151.21875 280.984375 151.234375 281.015625 C 158.941406 302.039062 173.417969 319.722656 192.824219 331.53125 C 208.589844 341.125 226.292969 346.054688 244.285156 346.050781 C 252.175781 346.050781 260.125 345.105469 267.988281 343.1875 C 321.230469 330.207031 353.996094 276.300781 341.023438 223.027344 C 335.644531 200.925781 323.320312 181.898438 305.386719 167.992188 C 288.890625 155.199219 268.582031 147.871094 247.859375 147.160156 C 247.761719 146.734375 247.660156 146.3125 247.558594 145.890625 C 246.539062 141.703125 245.292969 137.542969 243.835938 133.46875 C 267.746094 133.324219 291.304688 140.871094 310.847656 155.050781 C 332.503906 170.761719 347.917969 193.757812 354.257812 219.800781 C 369.011719 280.382812 331.753906 341.675781 271.210938 356.4375 Z M 271.210938 356.4375 " fill-opacity="1" fill-rule="nonzero"/></g></svg>