<?xml version="1.0" encoding="UTF-8"?><svg id="a" xmlns="http://www.w3.org/2000/svg" viewBox="0 0 830 560"><defs><style>.b{font-size:235px;}.c{font-size:84.64px;}.c,.d{fill:#29b14d;}.c,.e{font-family:SignPainter-HouseScript, SignPainter;}.f{letter-spacing:-.13em;}.f,.g{font-size:217.89px;}.h{letter-spacing:-.03em;}.i{font-size:52.13px;}.i,.j{font-family:SignPainter-HouseScriptSemibold, SignPainter;font-weight:700;}.i,.j,.e{fill:#29b04d;}.k{letter-spacing:0em;}.j{font-size:52.89px;}</style></defs><text class="e" transform="translate(160.8 359.46) rotate(-9.72)"><tspan class="b" x="0" y="0">Spot</tspan><tspan class="f" x="324.05" y="0">’</tspan><tspan class="g" x="345.84" y="0">s</tspan></text><text class="c" transform="translate(323.07 401.77) rotate(-9.39)"><tspan class="h" x="0" y="0">L</tspan><tspan x="27.68" y="0">andscap</tspan><tspan class="k" x="247.83" y="0">e</tspan><tspan x="274.5" y="0">s</tspan></text><path class="d" d="M431.14,97.38c62.98,0,122.32,14.71,167.11,41.41,22.1,13.18,40.18,28.88,53.74,46.68,13.86,18.19,22.69,38.2,26.24,59.48,4.19,25.07,.91,50.68-9.74,76.11-10.44,24.93-27.49,48.67-50.65,70.54-23.4,22.09-51.81,41.13-84.46,56.59-33.94,16.07-70.95,27.52-110,34.04-23.71,3.96-47.61,5.97-71.03,5.97-62.98,0-122.33-14.71-167.12-41.41-22.1-13.18-40.18-28.88-53.74-46.68-13.86-18.19-22.69-38.2-26.24-59.48-4.19-25.07-.91-50.68,9.74-76.11,10.44-24.93,27.49-48.67,50.65-70.54,23.4-22.09,51.81-41.13,84.46-56.59,33.94-16.07,70.95-27.52,110-34.04,23.71-3.96,47.6-5.97,71.03-5.97h0m-.01-9c-23.54,0-47.85,1.97-72.51,6.09C195.49,121.72,78.08,232.59,96.37,342.12c15.53,92.97,123.82,155.08,255.98,155.08,23.54,0,47.85-1.97,72.51-6.09,163.13-27.24,280.54-138.12,262.25-247.65-15.53-92.97-123.82-155.09-255.98-155.08h0Z"/><text class="i" transform="translate(109.02 205) rotate(-52.6) scale(.97 1)"><tspan x="0" y="0">F</tspan></text><text class="i" transform="translate(119.04 191.74) rotate(-48.52) scale(.97 1)"><tspan x="0" y="0">a</tspan></text><text class="i" transform="translate(133.26 175.48) rotate(-43.15) scale(.97 1)"><tspan x="0" y="0">m</tspan></text><text class="i" transform="translate(154.82 155.74) rotate(-39.31) scale(.97 1)"><tspan x="0" y="0">i</tspan></text><text class="i" transform="translate(162.77 149.22) rotate(-37.31) scale(.97 1)"><tspan x="0" y="0">l</tspan></text><text class="i" transform="translate(172.39 141.8) rotate(-34.58) scale(.97 1)"><tspan x="0" y="0">y</tspan></text><text class="i" transform="translate(188.44 130.86) rotate(-32.03) scale(.97 1)"><tspan x="0" y="0"> </tspan></text><text class="i" transform="translate(198.27 124.48) rotate(-28.95) scale(.97 1)"><tspan x="0" y="0">O</tspan></text><text class="i" transform="translate(222.67 111.07) rotate(-25.02) scale(.97 1)"><tspan x="0" y="0">w</tspan></text><text class="i" transform="translate(245.44 100.54) rotate(-21.88) scale(.97 1)"><tspan x="0" y="0">n</tspan></text><text class="i" transform="translate(263.87 93.19) rotate(-19.43) scale(.97 1)"><tspan x="0" y="0">e</tspan></text><text class="i" transform="translate(279.55 87.62) rotate(-16.98) scale(.97 1)"><tspan x="0" y="0">d</tspan></text><text class="j" transform="translate(526.51 517.06) rotate(-20.95) scale(.96 1)"><tspan x="0" y="0">S</tspan></text><text class="j" transform="translate(547.82 508.77) rotate(-23.07) scale(.96 1)"><tspan x="0" y="0">i</tspan></text><text class="j" transform="translate(558.22 504.41) rotate(-25.14) scale(.96 1)"><tspan x="0" y="0">n</tspan></text><text class="j" transform="translate(577 495.52) rotate(-27.66) scale(.96 1)"><tspan x="0" y="0">c</tspan></text><text class="j" transform="translate(592.08 487.59) rotate(-30.04) scale(.96 1)"><tspan x="0" y="0">e</tspan></text><text class="j" transform="translate(607.04 478.86) rotate(-32.15) scale(.96 1)"><tspan x="0" y="0"> </tspan></text><text class="j" transform="translate(617.28 472.41) rotate(-33.92) scale(.96 1)"><tspan x="0" y="0">1</tspan></text><text class="j" transform="translate(627.65 465.54) rotate(-36.57) scale(.96 1)"><tspan x="0" y="0">9</tspan></text><text class="j" transform="translate(645.55 452.19) rotate(-40.05) scale(.96 1)"><tspan x="0" y="0">8</tspan></text><text class="j" transform="translate(662.13 438.21) rotate(-43.88) scale(.96 1)"><tspan x="0" y="0">9</tspan></text><text/></svg>