<svg xmlns="http://www.w3.org/2000/svg" xmlns:xlink="http://www.w3.org/1999/xlink" width="500" zoomAndPan="magnify" viewBox="0 0 375 374.999991" height="500" preserveAspectRatio="xMidYMid meet" version="1.0"><defs><clipPath id="id1"><path d="M 1 0 L 374 0 L 374 284.25 L 1 284.25 Z M 1 0 " clip-rule="nonzero"/></clipPath></defs><path fill="#1c1c1c" d="M 273.667969 151.09375 C 251.675781 151.09375 233.726562 133.15625 233.726562 111.1875 C 233.726562 89.21875 251.675781 71.285156 273.667969 71.285156 C 295.65625 71.285156 313.609375 89.21875 313.609375 111.1875 C 313.609375 133.15625 295.65625 151.09375 273.667969 151.09375 Z M 273.667969 80.253906 C 256.613281 80.253906 242.699219 94.152344 242.699219 111.1875 C 242.699219 128.226562 256.613281 142.125 273.667969 142.125 C 290.722656 142.125 304.632812 128.226562 304.632812 111.1875 C 304.632812 94.152344 290.722656 80.253906 273.667969 80.253906 Z M 273.667969 80.253906 " fill-opacity="1" fill-rule="nonzero"/><path fill="#1c1c1c" d="M 346.820312 208.03125 L 316.75 154.230469 C 319.890625 153.332031 323.035156 151.988281 325.277344 148.851562 C 327.96875 144.816406 327.96875 139.882812 327.523438 135.398438 C 327.523438 132.710938 327.074219 130.46875 327.523438 128.675781 C 327.96875 127.328125 329.765625 125.089844 331.113281 123.292969 C 333.804688 119.707031 337.394531 116.121094 337.394531 110.742188 C 337.394531 105.359375 334.253906 101.773438 331.113281 98.1875 C 329.765625 96.394531 327.96875 94.601562 327.523438 92.808594 C 327.074219 91.015625 327.074219 88.773438 327.523438 86.082031 C 327.96875 81.597656 327.96875 76.667969 325.277344 72.632812 C 322.136719 68.597656 317.648438 67.25 313.160156 66.355469 C 310.917969 65.90625 308.222656 65.011719 306.878906 64.113281 C 305.53125 63.214844 304.183594 60.976562 302.839844 58.734375 C 300.59375 55.144531 297.902344 50.664062 292.964844 49.316406 C 288.476562 47.972656 283.988281 49.765625 279.949219 51.109375 C 277.707031 52.007812 275.011719 52.90625 273.21875 52.90625 C 271.421875 52.90625 269.179688 52.007812 266.488281 51.109375 C 262.449219 49.316406 257.960938 47.523438 253.472656 49.316406 C 248.535156 50.664062 245.84375 55.144531 243.597656 58.734375 C 242.253906 60.976562 240.90625 62.769531 239.558594 64.113281 C 238.214844 65.011719 235.519531 65.90625 233.277344 66.355469 C 228.789062 67.25 224.300781 68.597656 221.160156 72.632812 C 218.464844 76.667969 218.464844 81.597656 218.914062 86.082031 C 218.914062 88.773438 219.363281 91.015625 218.914062 92.808594 C 218.464844 94.152344 216.671875 96.394531 215.324219 98.1875 C 212.632812 101.773438 209.042969 105.359375 209.042969 110.742188 C 209.042969 115.671875 212.183594 119.707031 215.324219 123.292969 C 216.671875 125.089844 218.464844 126.882812 218.914062 128.675781 C 219.363281 130.46875 219.363281 132.710938 218.914062 135.398438 C 218.464844 139.882812 218.464844 144.816406 221.160156 148.851562 C 223.851562 152.4375 227.890625 153.78125 231.929688 154.679688 L 202.308594 208.03125 C 201.414062 209.375 201.414062 211.167969 202.308594 212.515625 C 203.207031 213.859375 204.554688 214.757812 206.347656 214.757812 L 225.648438 213.410156 L 234.621094 230.449219 C 235.519531 231.792969 236.867188 232.691406 238.660156 232.691406 C 240.457031 232.691406 241.804688 231.792969 242.699219 230.449219 L 275.011719 173.507812 L 306.429688 230 C 307.328125 231.34375 308.671875 232.242188 310.46875 232.242188 C 312.261719 232.242188 313.609375 231.34375 314.507812 230 L 323.484375 212.964844 L 342.78125 214.308594 C 344.574219 214.308594 345.921875 213.410156 346.820312 212.066406 C 347.71875 211.171875 347.71875 209.375 346.820312 208.03125 Z M 228.339844 135.847656 C 228.339844 132.710938 228.789062 129.121094 227.890625 125.984375 C 226.992188 122.847656 224.75 120.15625 222.503906 117.914062 C 220.710938 115.671875 218.464844 112.984375 218.464844 111.1875 C 218.464844 109.394531 220.710938 106.707031 222.503906 104.464844 C 224.75 101.773438 226.992188 99.53125 227.890625 96.394531 C 228.789062 93.253906 228.789062 89.667969 228.339844 86.53125 C 228.339844 83.390625 227.890625 80.253906 228.789062 78.910156 C 229.6875 77.5625 232.828125 76.667969 235.519531 76.21875 C 238.660156 75.320312 242.253906 74.425781 244.945312 72.632812 C 247.636719 70.839844 249.433594 67.699219 251.226562 65.011719 C 253.023438 62.320312 254.371094 59.628906 256.164062 59.179688 C 256.613281 59.179688 256.613281 59.179688 257.0625 59.179688 C 258.855469 59.179688 261.101562 60.078125 263.34375 60.976562 C 266.488281 62.320312 269.628906 63.664062 273.21875 63.664062 C 276.808594 63.664062 279.949219 62.320312 283.089844 60.976562 C 285.785156 60.078125 288.476562 58.734375 290.273438 59.179688 C 292.066406 59.628906 293.414062 62.320312 295.207031 65.011719 C 297.003906 67.699219 298.800781 70.839844 301.492188 72.632812 C 304.183594 74.425781 307.773438 75.320312 310.917969 76.21875 C 314.058594 77.113281 316.75 77.5625 317.648438 78.910156 C 318.546875 80.253906 318.546875 83.390625 318.097656 86.53125 C 318.097656 89.667969 317.648438 93.253906 318.546875 96.394531 C 319.445312 99.53125 321.6875 102.222656 323.929688 104.464844 C 325.726562 106.707031 327.96875 109.394531 327.96875 111.1875 C 327.96875 112.984375 325.726562 115.671875 323.929688 117.914062 C 321.6875 120.605469 319.445312 122.847656 318.546875 125.984375 C 317.648438 129.121094 317.648438 132.710938 318.097656 135.847656 C 318.097656 138.988281 318.546875 142.125 317.648438 143.46875 C 316.75 144.816406 313.609375 145.710938 310.917969 146.160156 C 307.773438 147.058594 304.183594 147.953125 301.492188 149.746094 C 298.800781 151.539062 297.003906 154.679688 295.207031 157.367188 C 293.414062 160.058594 292.066406 162.75 290.273438 163.195312 C 288.925781 163.644531 285.785156 162.300781 283.089844 161.402344 C 280.847656 160.507812 278.15625 159.609375 275.910156 159.160156 C 275.011719 159.160156 274.117188 158.714844 273.21875 158.714844 C 269.628906 158.714844 266.488281 160.058594 263.34375 161.402344 C 260.652344 162.300781 257.960938 163.644531 256.164062 163.195312 C 254.371094 162.75 253.023438 160.058594 251.226562 157.367188 C 249.433594 154.679688 247.636719 151.539062 244.945312 149.746094 C 242.253906 147.953125 238.660156 147.058594 235.519531 146.160156 C 232.378906 145.261719 229.6875 144.816406 228.789062 143.46875 C 227.890625 142.125 228.339844 138.988281 228.339844 135.847656 Z M 239.558594 218.792969 L 232.828125 206.6875 C 231.929688 205.339844 230.136719 204.445312 228.789062 204.445312 L 214.875 204.894531 L 240.90625 157.816406 C 241.804688 158.714844 243.148438 160.507812 244.046875 162.300781 C 246.292969 165.886719 248.984375 170.371094 253.921875 171.714844 C 255.265625 172.164062 256.164062 172.164062 257.511719 172.164062 C 260.652344 172.164062 264.242188 170.820312 266.933594 169.472656 Z M 321.238281 203.996094 C 319.445312 203.996094 317.648438 204.894531 317.199219 206.238281 L 310.46875 218.34375 L 284.4375 171.265625 C 287.128906 172.164062 290.273438 172.613281 293.414062 171.714844 C 298.351562 170.371094 301.042969 165.886719 303.289062 162.300781 C 304.632812 160.058594 305.980469 158.265625 307.328125 156.921875 C 307.773438 156.472656 308.222656 156.472656 308.671875 156.472656 L 335.601562 204.894531 Z M 321.238281 203.996094 " fill-opacity="1" fill-rule="nonzero"/><g clip-path="url(#id1)"><path fill="#1c1c1c" d="M 354.449219 284.25 L 20.550781 284.25 C 9.78125 284.25 1.253906 275.730469 1.253906 264.972656 L 1.253906 19.277344 C 1.253906 8.519531 9.78125 0 20.550781 0 L 354.449219 0 C 365.21875 0 373.746094 8.519531 373.746094 19.277344 L 373.746094 264.972656 C 373.746094 275.28125 364.769531 284.25 354.449219 284.25 Z M 20.550781 8.96875 C 14.71875 8.96875 10.230469 13.449219 10.230469 19.277344 L 10.230469 264.972656 C 10.230469 270.800781 14.71875 275.28125 20.550781 275.28125 L 354.449219 275.28125 C 360.28125 275.28125 364.769531 270.800781 364.769531 264.972656 L 364.769531 19.277344 C 364.769531 13.449219 360.28125 8.96875 354.449219 8.96875 Z M 20.550781 8.96875 " fill-opacity="1" fill-rule="nonzero"/></g><path fill="#1c1c1c" d="M 338.742188 265.417969 L 37.605469 265.417969 C 28.179688 265.417969 20.550781 257.796875 20.550781 248.382812 L 20.550781 35.867188 C 20.550781 26.453125 28.179688 18.832031 37.605469 18.832031 L 338.742188 18.832031 C 348.164062 18.832031 355.796875 26.453125 355.796875 35.867188 L 355.796875 248.382812 C 355.796875 257.796875 348.164062 265.417969 338.742188 265.417969 Z M 37.605469 23.3125 C 30.875 23.3125 25.039062 29.140625 25.039062 35.867188 L 25.039062 248.382812 C 25.039062 255.109375 30.875 260.9375 37.605469 260.9375 L 338.742188 260.9375 C 345.472656 260.9375 351.308594 255.109375 351.308594 248.382812 L 351.308594 35.867188 C 351.308594 29.140625 345.472656 23.3125 338.742188 23.3125 Z M 37.605469 23.3125 " fill-opacity="1" fill-rule="nonzero"/><path fill="#1c1c1c" d="M 198.71875 66.804688 L 53.3125 66.804688 C 50.621094 66.804688 48.824219 65.011719 48.824219 62.320312 C 48.824219 59.628906 50.621094 57.835938 53.3125 57.835938 L 198.269531 57.835938 C 200.964844 57.835938 202.757812 59.628906 202.757812 62.320312 C 202.757812 65.011719 200.964844 66.804688 198.71875 66.804688 Z M 198.71875 66.804688 " fill-opacity="1" fill-rule="nonzero"/><path fill="#1c1c1c" d="M 182.113281 178.890625 L 53.3125 178.890625 C 50.621094 178.890625 48.824219 177.097656 48.824219 174.40625 C 48.824219 171.714844 50.621094 169.921875 53.3125 169.921875 L 182.113281 169.921875 C 184.808594 169.921875 186.601562 171.714844 186.601562 174.40625 C 186.601562 177.097656 184.808594 178.890625 182.113281 178.890625 Z M 182.113281 178.890625 " fill-opacity="1" fill-rule="nonzero"/><path fill="#1c1c1c" d="M 182.113281 127.328125 L 53.3125 127.328125 C 50.621094 127.328125 48.824219 125.535156 48.824219 122.847656 C 48.824219 120.15625 50.621094 118.363281 53.3125 118.363281 L 182.113281 118.363281 C 184.808594 118.363281 186.601562 120.15625 186.601562 122.847656 C 186.601562 125.535156 184.808594 127.328125 182.113281 127.328125 Z M 182.113281 127.328125 " fill-opacity="1" fill-rule="nonzero"/><path fill="#1c1c1c" d="M 121.527344 212.964844 L 53.3125 212.964844 C 50.621094 212.964844 48.824219 211.167969 48.824219 208.480469 C 48.824219 205.789062 50.621094 203.996094 53.3125 203.996094 L 121.527344 203.996094 C 124.222656 203.996094 126.015625 205.789062 126.015625 208.480469 C 126.015625 211.167969 124.222656 212.964844 121.527344 212.964844 Z M 121.527344 212.964844 " fill-opacity="1" fill-rule="nonzero"/></svg>