<svg xmlns="http://www.w3.org/2000/svg" xmlns:xlink="http://www.w3.org/1999/xlink" width="500" zoomAndPan="magnify" viewBox="0 0 375 374.999991" height="500" preserveAspectRatio="xMidYMid meet" version="1.0"><defs><clipPath id="id1"><path d="M 8.4375 184 L 366.9375 184 L 366.9375 375 L 8.4375 375 Z M 8.4375 184 " clip-rule="nonzero"/></clipPath></defs><g clip-path="url(#id1)"><path fill="#131110" d="M 322.675781 184.707031 C 322.65625 184.707031 322.628906 184.707031 322.597656 184.707031 L 322.539062 184.707031 C 322.5 184.707031 322.472656 184.707031 322.445312 184.707031 C 298.332031 184.707031 279.054688 203.960938 279.054688 228 L 279.054688 240.613281 C 279.054688 250.09375 286.699219 258.511719 296.136719 258.511719 L 310.007812 258.511719 C 291.574219 289.582031 260.996094 313.898438 225.667969 323.835938 C 223.667969 320.191406 221.167969 316.972656 218.261719 314.050781 C 210.339844 306.078125 199.402344 301.238281 187.328125 301.238281 L 187.300781 301.238281 C 170.8125 301.238281 156.433594 310.492188 149 324.089844 C 113.621094 314.15625 82.992188 289.582031 64.539062 258.511719 L 78.402344 258.511719 C 87.929688 258.511719 96.300781 250.09375 96.300781 240.613281 L 96.300781 228 C 96.300781 203.90625 76.300781 184.707031 52.078125 184.707031 C 51.976562 184.707031 51.871094 184.707031 51.773438 184.707031 C 27.871094 184.707031 8.808594 204 8.808594 228 L 8.808594 240.613281 C 8.808594 250.253906 16.039062 258.511719 25.332031 258.511719 L 46.859375 258.511719 C 56.703125 277.933594 70.742188 295.257812 87.664062 309.113281 C 104.210938 322.648438 123.75 332.675781 144.234375 338.53125 C 143.921875 340.621094 143.933594 342.65625 143.933594 344.828125 L 143.933594 357.449219 C 143.933594 366.925781 151.289062 375.042969 160.742188 375.042969 L 213.796875 375.042969 C 223.335938 375.042969 231.421875 366.925781 231.421875 357.449219 L 231.421875 344.828125 C 231.421875 342.648438 231.101562 340.488281 230.789062 338.390625 C 251.253906 332.515625 270.535156 322.582031 287.054688 309.035156 C 303.9375 295.195312 317.863281 277.933594 327.691406 258.511719 L 349.203125 258.511719 C 358.585938 258.511719 366.546875 250.253906 366.546875 240.613281 L 366.546875 228 C 366.546875 203.972656 346.707031 184.707031 322.675781 184.707031 " fill-opacity="1" fill-rule="nonzero"/></g><path fill="#131110" d="M 231.421875 123.777344 L 231.421875 111.164062 C 231.421875 99.207031 226.351562 88.558594 218.425781 80.699219 C 210.503906 72.847656 199.402344 68.171875 187.328125 68.171875 L 187.300781 68.171875 C 163.199219 68.171875 143.933594 87.246094 143.933594 111.164062 L 143.933594 123.777344 C 143.933594 133.207031 151.125 141.007812 160.742188 141.007812 L 213.796875 141.007812 C 223.5 141.007812 231.421875 133.207031 231.421875 123.777344 " fill-opacity="1" fill-rule="nonzero"/><path fill="#131110" d="M 187.171875 233.707031 C 168.992188 233.707031 154.207031 248.476562 154.207031 266.648438 C 154.207031 284.804688 168.992188 299.578125 187.171875 299.578125 C 205.351562 299.578125 220.136719 284.804688 220.136719 266.648438 C 220.136719 248.476562 205.351562 233.707031 187.171875 233.707031 " fill-opacity="1" fill-rule="nonzero"/><path fill="#131110" d="M 51.761719 182.746094 C 69.945312 182.746094 84.742188 167.964844 84.742188 149.804688 C 84.742188 135.667969 75.773438 123.585938 63.226562 118.925781 C 83.183594 82.828125 117.851562 57.191406 158.277344 48.808594 C 163.890625 58.996094 174.738281 65.910156 187.171875 65.910156 C 199.625 65.910156 210.484375 58.976562 216.082031 48.769531 C 256.453125 57.101562 291.296875 82.808594 311.285156 118.863281 C 298.648438 123.476562 289.605469 135.605469 289.605469 149.804688 C 289.605469 167.964844 304.390625 182.746094 322.570312 182.746094 C 340.746094 182.746094 355.542969 167.964844 355.542969 149.804688 C 355.542969 133.507812 343.628906 119.933594 328.039062 117.332031 C 306.636719 74.457031 266.757812 43.652344 220.125 33.738281 C 220.136719 33.484375 220.136719 33.234375 220.136719 32.972656 C 220.136719 14.8125 205.351562 0.0429688 187.171875 0.0429688 C 168.992188 0.0429688 154.207031 14.8125 154.207031 32.972656 C 154.207031 33.242188 154.207031 33.507812 154.21875 33.769531 C 107.566406 43.730469 67.933594 74.417969 46.527344 117.292969 C 30.828125 119.808594 18.800781 133.421875 18.800781 149.804688 C 18.800781 167.964844 33.589844 182.746094 51.761719 182.746094 " fill-opacity="1" fill-rule="nonzero"/></svg>