<svg xmlns="http://www.w3.org/2000/svg" xmlns:xlink="http://www.w3.org/1999/xlink" width="500" zoomAndPan="magnify" viewBox="0 0 375 374.999991" height="500" preserveAspectRatio="xMidYMid meet" version="1.0"><defs><clipPath id="id1"><path d="M 0 0 L 187.5 0 L 187.5 187.5 L 0 187.5 Z M 0 0 " clip-rule="nonzero"/></clipPath><clipPath id="id2"><path d="M 205.699219 205.699219 L 375 205.699219 L 375 375 L 205.699219 375 Z M 205.699219 205.699219 " clip-rule="nonzero"/></clipPath><clipPath id="id3"><path d="M 100 205.699219 L 147 205.699219 L 147 243 L 100 243 Z M 100 205.699219 " clip-rule="nonzero"/></clipPath><clipPath id="id4"><path d="M 127 307 L 163.5 307 L 163.5 325 L 127 325 Z M 127 307 " clip-rule="nonzero"/></clipPath><clipPath id="id5"><path d="M 14 205.699219 L 40 205.699219 L 40 249 L 14 249 Z M 14 205.699219 " clip-rule="nonzero"/></clipPath></defs><g clip-path="url(#id1)"><path fill="#1c1c1c" d="M 183.960938 85.398438 L 102.097656 3.539062 C 101.539062 2.976562 100.929688 2.476562 100.269531 2.035156 C 99.609375 1.597656 98.914062 1.222656 98.183594 0.921875 C 97.449219 0.617188 96.695312 0.386719 95.917969 0.234375 C 95.140625 0.078125 94.355469 0 93.5625 0 C 92.769531 0 91.984375 0.078125 91.207031 0.234375 C 90.429688 0.386719 89.675781 0.617188 88.941406 0.921875 C 88.210938 1.222656 87.515625 1.597656 86.855469 2.035156 C 86.195312 2.476562 85.585938 2.976562 85.023438 3.539062 L 68.035156 20.53125 L 89.597656 42.09375 C 94.613281 40.335938 100.355469 41.535156 104.347656 45.53125 C 105.300781 46.484375 106.101562 47.550781 106.753906 48.730469 C 107.40625 49.90625 107.878906 51.152344 108.183594 52.464844 C 108.484375 53.777344 108.597656 55.105469 108.523438 56.449219 C 108.453125 57.792969 108.195312 59.101562 107.753906 60.375 L 128.535156 81.15625 C 133.5625 79.421875 139.363281 80.542969 143.378906 84.566406 C 144.046875 85.234375 144.644531 85.960938 145.167969 86.746094 C 145.691406 87.53125 146.136719 88.359375 146.496094 89.230469 C 146.859375 90.101562 147.128906 91 147.316406 91.925781 C 147.5 92.851562 147.589844 93.789062 147.589844 94.730469 C 147.589844 95.675781 147.5 96.609375 147.316406 97.535156 C 147.132812 98.460938 146.859375 99.359375 146.496094 100.234375 C 146.136719 101.105469 145.695312 101.933594 145.167969 102.71875 C 144.644531 103.503906 144.046875 104.230469 143.382812 104.898438 C 142.714844 105.5625 141.988281 106.160156 141.203125 106.683594 C 140.417969 107.207031 139.589844 107.652344 138.714844 108.011719 C 137.84375 108.371094 136.945312 108.644531 136.019531 108.828125 C 135.09375 109.011719 134.160156 109.105469 133.214844 109.105469 C 132.269531 109.105469 131.335938 109.011719 130.410156 108.828125 C 129.484375 108.640625 128.585938 108.371094 127.714844 108.007812 C 126.84375 107.644531 126.015625 107.203125 125.230469 106.675781 C 124.445312 106.152344 123.71875 105.554688 123.054688 104.886719 C 118.835938 100.667969 117.792969 94.457031 119.925781 89.261719 L 100.539062 69.878906 L 100.539062 120.882812 C 101.957031 121.585938 103.226562 122.492188 104.347656 123.601562 C 105.015625 124.269531 105.613281 124.996094 106.136719 125.78125 C 106.660156 126.566406 107.101562 127.394531 107.464844 128.265625 C 107.824219 129.136719 108.097656 130.035156 108.28125 130.960938 C 108.464844 131.886719 108.558594 132.820312 108.558594 133.761719 C 108.558594 134.707031 108.464844 135.640625 108.28125 136.566406 C 108.097656 137.492188 107.824219 138.390625 107.464844 139.261719 C 107.101562 140.132812 106.660156 140.960938 106.136719 141.746094 C 105.613281 142.53125 105.015625 143.257812 104.347656 143.921875 C 103.683594 144.589844 102.957031 145.1875 102.171875 145.710938 C 101.386719 146.234375 100.558594 146.675781 99.6875 147.039062 C 98.816406 147.398438 97.917969 147.671875 96.992188 147.855469 C 96.066406 148.039062 95.132812 148.132812 94.191406 148.132812 C 93.246094 148.132812 92.3125 148.039062 91.386719 147.855469 C 90.460938 147.671875 89.5625 147.398438 88.691406 147.039062 C 87.820312 146.675781 86.992188 146.234375 86.207031 145.710938 C 85.421875 145.1875 84.695312 144.589844 84.027344 143.921875 C 83.363281 143.257812 82.765625 142.53125 82.238281 141.746094 C 81.714844 140.964844 81.273438 140.136719 80.910156 139.261719 C 80.550781 138.390625 80.277344 137.492188 80.09375 136.566406 C 79.90625 135.640625 79.816406 134.707031 79.816406 133.761719 C 79.816406 132.820312 79.90625 131.886719 80.09375 130.960938 C 80.277344 130.035156 80.550781 129.136719 80.910156 128.265625 C 81.273438 127.390625 81.714844 126.5625 82.238281 125.78125 C 82.765625 124.996094 83.363281 124.269531 84.027344 123.601562 C 85.417969 122.21875 86.957031 121.171875 88.734375 120.46875 L 88.734375 68.988281 C 87.023438 68.285156 85.417969 67.246094 84.027344 65.851562 C 83.527344 65.351562 83.066406 64.816406 82.644531 64.246094 C 82.222656 63.679688 81.84375 63.082031 81.507812 62.457031 C 81.175781 61.828125 80.890625 61.183594 80.652344 60.515625 C 80.414062 59.847656 80.226562 59.164062 80.089844 58.46875 C 79.953125 57.773438 79.867188 57.074219 79.835938 56.363281 C 79.800781 55.65625 79.820312 54.949219 79.890625 54.246094 C 79.964844 53.539062 80.085938 52.84375 80.261719 52.15625 C 80.4375 51.46875 80.660156 50.796875 80.933594 50.144531 L 59.664062 28.886719 L 3.535156 84.960938 C 2.972656 85.519531 2.472656 86.132812 2.03125 86.789062 C 1.589844 87.449219 1.214844 88.144531 0.914062 88.878906 C 0.609375 89.609375 0.378906 90.367188 0.226562 91.144531 C 0.0703125 91.921875 -0.0078125 92.707031 -0.0078125 93.5 C -0.0078125 94.292969 0.0703125 95.078125 0.226562 95.859375 C 0.378906 96.636719 0.609375 97.390625 0.914062 98.125 C 1.214844 98.855469 1.589844 99.550781 2.03125 100.210938 C 2.472656 100.871094 2.972656 101.480469 3.535156 102.039062 L 85.398438 183.894531 C 85.960938 184.457031 86.570312 184.957031 87.230469 185.398438 C 87.890625 185.839844 88.585938 186.210938 89.316406 186.515625 C 90.050781 186.816406 90.804688 187.046875 91.582031 187.203125 C 92.359375 187.355469 93.144531 187.433594 93.9375 187.433594 C 94.730469 187.433594 95.515625 187.355469 96.292969 187.203125 C 97.070312 187.046875 97.824219 186.816406 98.558594 186.515625 C 99.289062 186.210938 99.984375 185.839844 100.644531 185.398438 C 101.304688 184.957031 101.914062 184.457031 102.472656 183.894531 L 183.960938 102.539062 C 184.523438 101.980469 185.023438 101.367188 185.464844 100.710938 C 185.90625 100.050781 186.277344 99.355469 186.582031 98.621094 C 186.886719 97.890625 187.113281 97.132812 187.269531 96.355469 C 187.425781 95.578125 187.5 94.792969 187.5 94 C 187.5 93.207031 187.425781 92.421875 187.269531 91.640625 C 187.113281 90.863281 186.886719 90.109375 186.582031 89.375 C 186.277344 88.644531 185.90625 87.949219 185.464844 87.289062 C 185.023438 86.628906 184.523438 86.019531 183.960938 85.457031 " fill-opacity="1" fill-rule="nonzero"/></g><path fill="#1c1c1c" d="M 313.0625 161.101562 C 314.601562 160.589844 316.121094 160.03125 317.621094 159.429688 C 319.125 158.832031 320.609375 158.1875 322.074219 157.496094 C 323.539062 156.808594 324.984375 156.078125 326.40625 155.304688 C 327.828125 154.53125 329.226562 153.71875 330.601562 152.863281 C 331.976562 152.007812 333.324219 151.113281 334.644531 150.179688 C 335.96875 149.246094 337.261719 148.273438 338.523438 147.261719 C 339.789062 146.253906 341.023438 145.207031 342.226562 144.125 C 343.429688 143.042969 344.601562 141.925781 345.738281 140.773438 C 346.875 139.621094 347.976562 138.4375 349.042969 137.222656 C 350.113281 136.007812 351.144531 134.761719 352.136719 133.484375 C 353.132812 132.207031 354.089844 130.902344 355.007812 129.570312 C 355.925781 128.238281 356.800781 126.878906 357.640625 125.496094 C 358.476562 124.109375 359.273438 122.703125 360.027344 121.273438 C 360.785156 119.84375 361.496094 118.390625 362.164062 116.917969 C 362.835938 115.445312 363.460938 113.953125 364.042969 112.445312 C 364.625 110.933594 365.164062 109.410156 365.65625 107.867188 C 366.148438 106.328125 366.59375 104.773438 366.996094 103.207031 C 367.394531 101.640625 367.75 100.0625 368.058594 98.472656 C 368.367188 96.886719 368.625 95.289062 368.839844 93.6875 C 369.054688 92.082031 369.222656 90.476562 369.34375 88.863281 C 369.460938 87.25 369.535156 85.632812 369.558594 84.015625 C 369.582031 82.398438 369.558594 80.78125 369.488281 79.164062 C 369.417969 77.550781 369.300781 75.9375 369.136719 74.328125 C 368.972656 72.71875 368.757812 71.117188 368.5 69.519531 C 368.238281 67.921875 367.933594 66.335938 367.582031 64.757812 C 367.226562 63.179688 366.828125 61.609375 366.382812 60.054688 C 365.9375 58.5 365.449219 56.960938 364.910156 55.433594 C 364.375 53.90625 363.796875 52.398438 363.171875 50.90625 C 362.546875 49.414062 361.878906 47.941406 361.167969 46.488281 C 360.457031 45.035156 359.703125 43.601562 358.910156 42.191406 C 358.113281 40.785156 357.277344 39.398438 356.402344 38.039062 C 355.523438 36.679688 354.609375 35.347656 353.652344 34.039062 C 352.699219 32.734375 351.707031 31.457031 350.675781 30.210938 C 349.644531 28.960938 348.578125 27.746094 347.476562 26.558594 C 346.375 25.375 345.238281 24.222656 344.070312 23.105469 C 342.902344 21.984375 341.699219 20.902344 340.464844 19.855469 C 339.234375 18.804688 337.96875 17.796875 336.675781 16.820312 C 335.382812 15.847656 334.066406 14.910156 332.71875 14.015625 C 331.371094 13.117188 329.996094 12.261719 328.597656 11.445312 C 327.199219 10.632812 325.78125 9.855469 324.335938 9.125 C 322.890625 8.390625 321.429688 7.703125 319.945312 7.054688 C 318.460938 6.410156 316.957031 5.808594 315.4375 5.25 C 313.917969 4.691406 312.382812 4.175781 310.835938 3.707031 C 309.285156 3.238281 307.722656 2.816406 306.148438 2.441406 C 304.574219 2.066406 302.988281 1.734375 301.394531 1.449219 C 299.800781 1.167969 298.199219 0.929688 296.59375 0.742188 C 294.984375 0.550781 293.371094 0.410156 291.757812 0.3125 C 290.140625 0.21875 288.523438 0.171875 286.902344 0.171875 C 285.285156 0.171875 283.667969 0.21875 282.050781 0.3125 C 280.433594 0.410156 278.820312 0.550781 277.214844 0.742188 C 275.605469 0.929688 274.003906 1.167969 272.410156 1.449219 C 270.816406 1.734375 269.234375 2.066406 267.65625 2.441406 C 266.082031 2.816406 264.519531 3.238281 262.972656 3.707031 C 261.421875 4.175781 259.886719 4.691406 258.367188 5.25 C 256.847656 5.808594 255.347656 6.410156 253.863281 7.054688 C 252.378906 7.703125 250.914062 8.390625 249.46875 9.125 C 248.027344 9.855469 246.605469 10.632812 245.207031 11.445312 C 243.808594 12.261719 242.4375 13.117188 241.089844 14.015625 C 239.742188 14.910156 238.421875 15.847656 237.128906 16.820312 C 235.835938 17.796875 234.574219 18.804688 233.339844 19.855469 C 232.105469 20.902344 230.90625 21.984375 229.734375 23.105469 C 228.566406 24.222656 227.429688 25.375 226.328125 26.558594 C 225.226562 27.746094 224.160156 28.960938 223.132812 30.210938 C 222.101562 31.457031 221.109375 32.734375 220.152344 34.039062 C 219.199219 35.347656 218.28125 36.679688 217.40625 38.039062 C 216.527344 39.398438 215.691406 40.785156 214.898438 42.191406 C 214.101562 43.601562 213.347656 45.035156 212.636719 46.488281 C 211.925781 47.941406 211.257812 49.414062 210.636719 50.90625 C 210.011719 52.398438 209.429688 53.90625 208.894531 55.433594 C 208.359375 56.960938 207.867188 58.5 207.421875 60.054688 C 206.976562 61.609375 206.578125 63.179688 206.226562 64.757812 C 205.875 66.335938 205.566406 67.921875 205.308594 69.519531 C 205.046875 71.117188 204.835938 72.71875 204.671875 74.328125 C 204.503906 75.9375 204.386719 77.550781 204.316406 79.164062 C 204.246094 80.78125 204.222656 82.398438 204.25 84.015625 C 204.273438 85.632812 204.34375 87.25 204.464844 88.863281 C 204.585938 90.476562 204.75 92.082031 204.964844 93.6875 C 205.179688 95.289062 205.441406 96.886719 205.75 98.472656 C 206.058594 100.0625 206.410156 101.640625 206.8125 103.207031 C 207.214844 104.773438 207.660156 106.328125 208.152344 107.867188 C 208.644531 109.410156 209.179688 110.933594 209.761719 112.445312 C 210.34375 113.953125 210.972656 115.445312 211.640625 116.917969 C 212.308594 118.390625 213.023438 119.84375 213.777344 121.273438 C 214.53125 122.703125 215.328125 124.109375 216.167969 125.496094 C 217.003906 126.878906 217.882812 128.238281 218.800781 129.570312 C 219.71875 130.902344 220.675781 132.207031 221.667969 133.484375 C 222.664062 134.761719 223.695312 136.007812 224.761719 137.222656 C 225.828125 138.4375 226.933594 139.621094 228.070312 140.773438 C 229.207031 141.925781 230.378906 143.042969 231.578125 144.125 C 232.78125 145.207031 234.015625 146.253906 235.28125 147.261719 C 236.546875 148.273438 237.839844 149.246094 239.160156 150.179688 C 240.484375 151.113281 241.832031 152.007812 243.207031 152.863281 C 244.578125 153.71875 245.976562 154.53125 247.398438 155.304688 C 248.824219 156.078125 250.265625 156.808594 251.730469 157.496094 C 253.195312 158.1875 254.679688 158.832031 256.183594 159.429688 C 257.6875 160.03125 259.207031 160.589844 260.742188 161.101562 C 264.890625 161.859375 266.375 159.304688 266.375 157.097656 C 266.375 155.613281 266.375 152.296875 266.375 147.808594 C 266.371094 147.515625 266.335938 147.226562 266.269531 146.941406 C 266.203125 146.65625 266.109375 146.378906 265.984375 146.113281 C 265.859375 145.847656 265.710938 145.597656 265.53125 145.363281 C 265.355469 145.128906 265.15625 144.917969 264.933594 144.722656 C 264.714844 144.53125 264.472656 144.363281 264.21875 144.222656 C 263.960938 144.082031 263.691406 143.96875 263.410156 143.882812 C 263.128906 143.796875 262.84375 143.742188 262.550781 143.71875 C 262.257812 143.691406 261.964844 143.699219 261.675781 143.734375 C 242.667969 145.769531 238.488281 131.855469 238.488281 131.855469 C 234.71875 122.292969 229.292969 119.738281 229.292969 119.738281 C 221.792969 114.59375 229.847656 114.699219 229.847656 114.699219 C 231.160156 114.878906 232.433594 115.207031 233.667969 115.679688 C 234.90625 116.15625 236.074219 116.765625 237.167969 117.507812 C 238.265625 118.25 239.265625 119.105469 240.164062 120.078125 C 241.0625 121.050781 241.839844 122.109375 242.496094 123.261719 C 242.984375 124.203125 243.554688 125.089844 244.207031 125.925781 C 244.863281 126.761719 245.589844 127.527344 246.386719 128.226562 C 247.1875 128.925781 248.042969 129.542969 248.957031 130.082031 C 249.875 130.621094 250.832031 131.070312 251.828125 131.425781 C 252.828125 131.785156 253.851562 132.046875 254.902344 132.214844 C 255.949219 132.382812 257.003906 132.449219 258.066406 132.417969 C 259.128906 132.386719 260.175781 132.257812 261.210938 132.03125 C 262.25 131.800781 263.257812 131.480469 264.234375 131.0625 C 264.921875 130.816406 265.507812 130.414062 265.984375 129.859375 C 266.464844 129.308594 266.78125 128.671875 266.929688 127.957031 C 267.230469 126.625 267.65625 125.335938 268.207031 124.089844 C 268.347656 123.800781 268.453125 123.496094 268.527344 123.183594 C 268.597656 122.871094 268.632812 122.550781 268.632812 122.230469 C 268.632812 121.90625 268.597656 121.589844 268.523438 121.273438 C 268.449219 120.960938 268.34375 120.660156 268.203125 120.371094 C 268.0625 120.082031 267.886719 119.8125 267.683594 119.5625 C 267.484375 119.3125 267.253906 119.085938 267 118.886719 C 266.746094 118.691406 266.472656 118.523438 266.179688 118.386719 C 265.886719 118.25 265.585938 118.148438 265.269531 118.082031 C 249.128906 114.9375 234.167969 106.101562 234.167969 78.101562 C 234.117188 74.683594 234.601562 71.34375 235.617188 68.082031 C 236.632812 64.816406 238.128906 61.792969 240.109375 59.007812 C 240.84375 58.015625 241.339844 56.917969 241.597656 55.714844 C 241.859375 54.511719 241.859375 53.304688 241.597656 52.101562 C 240.816406 48.1875 240.816406 44.277344 241.597656 40.363281 C 241.699219 39.84375 241.855469 39.339844 242.0625 38.851562 C 242.273438 38.367188 242.527344 37.90625 242.832031 37.472656 C 243.136719 37.039062 243.484375 36.644531 243.871094 36.28125 C 244.257812 35.921875 244.679688 35.605469 245.132812 35.332031 C 245.585938 35.058594 246.0625 34.835938 246.566406 34.660156 C 247.066406 34.488281 247.578125 34.367188 248.105469 34.300781 C 248.628906 34.234375 249.15625 34.222656 249.683594 34.269531 C 250.214844 34.3125 250.730469 34.410156 251.238281 34.5625 C 255.484375 35.949219 259.484375 37.859375 263.230469 40.292969 C 264.238281 40.898438 265.320312 41.289062 266.480469 41.46875 C 267.640625 41.648438 268.792969 41.601562 269.933594 41.328125 C 275.539062 40.082031 281.210938 39.457031 286.957031 39.457031 C 292.699219 39.457031 298.371094 40.082031 303.976562 41.328125 C 305.117188 41.601562 306.269531 41.648438 307.429688 41.46875 C 308.589844 41.289062 309.671875 40.898438 310.679688 40.292969 C 314.328125 37.933594 318.207031 36.054688 322.324219 34.664062 C 322.859375 34.503906 323.40625 34.398438 323.964844 34.355469 C 324.519531 34.308594 325.074219 34.324219 325.628906 34.398438 C 326.183594 34.472656 326.722656 34.605469 327.246094 34.796875 C 327.773438 34.988281 328.269531 35.234375 328.742188 35.53125 C 329.214844 35.828125 329.648438 36.175781 330.046875 36.566406 C 330.445312 36.957031 330.796875 37.386719 331.101562 37.855469 C 331.40625 38.324219 331.660156 38.816406 331.859375 39.339844 C 332.054688 39.859375 332.195312 40.398438 332.277344 40.949219 C 333 44.703125 333 48.453125 332.277344 52.203125 C 332.019531 53.410156 332.015625 54.613281 332.277344 55.816406 C 332.535156 57.023438 333.03125 58.121094 333.765625 59.109375 C 335.746094 61.894531 337.242188 64.921875 338.257812 68.183594 C 339.273438 71.445312 339.757812 74.785156 339.710938 78.203125 C 339.710938 106.273438 324.710938 115.042969 308.605469 118.148438 C 308.292969 118.210938 307.992188 118.304688 307.699219 118.433594 C 307.410156 118.5625 307.136719 118.71875 306.882812 118.910156 C 306.628906 119.101562 306.398438 119.320312 306.191406 119.5625 C 305.988281 119.804688 305.8125 120.066406 305.667969 120.351562 C 305.523438 120.632812 305.410156 120.929688 305.332031 121.238281 C 305.257812 121.546875 305.214844 121.859375 305.207031 122.175781 C 305.203125 122.496094 305.234375 122.808594 305.296875 123.121094 C 305.363281 123.433594 305.464844 123.730469 305.597656 124.019531 C 307.042969 127.324219 307.734375 130.773438 307.671875 134.378906 L 307.671875 157.128906 C 307.671875 157.128906 308.847656 161.792969 313.0625 161.101562 Z M 313.0625 161.101562 " fill-opacity="1" fill-rule="nonzero"/><g clip-path="url(#id2)"><path fill="#1c1c1c" d="M 356.367188 375.199219 L 224.53125 375.199219 C 214.132812 375.199219 205.699219 366.765625 205.699219 356.367188 L 205.699219 224.53125 C 205.699219 214.132812 214.132812 205.699219 224.53125 205.699219 L 356.367188 205.699219 C 366.765625 205.699219 375.199219 214.132812 375.199219 224.53125 L 375.199219 356.367188 C 375.199219 366.765625 366.765625 375.199219 356.367188 375.199219 Z M 356.367188 375.199219 " fill-opacity="1" fill-rule="nonzero"/></g><path fill="#f8f0e4" d="M 351.65625 286.097656 L 351.65625 290.09375 C 351.621094 290.308594 351.574219 290.519531 351.546875 290.738281 C 351.339844 292.472656 351.203125 294.222656 350.914062 295.945312 C 349.972656 301.546875 347.9375 306.753906 344.914062 311.570312 C 340.324219 318.882812 334.121094 324.457031 326.324219 328.265625 C 321.820312 330.476562 316.96875 331.890625 311.980469 332.460938 C 310.875 332.589844 309.761719 332.703125 308.65625 332.824219 L 265.652344 332.824219 C 265.433594 332.785156 265.21875 332.722656 265 332.707031 C 260.664062 332.4375 256.492188 331.460938 252.515625 329.730469 C 243.855469 325.980469 237.402344 319.894531 233.175781 311.519531 C 231.308594 307.828125 230.101562 303.839844 229.605469 299.738281 C 229.480469 298.742188 229.363281 297.746094 229.242188 296.75 L 229.242188 292.875 C 229.285156 292.65625 229.34375 292.445312 229.359375 292.230469 C 229.585938 288.503906 230.351562 284.894531 231.714844 281.417969 C 235.367188 272.074219 241.734375 265.136719 250.78125 260.652344 C 255.476562 258.320312 260.480469 257.097656 265.710938 256.828125 C 268.273438 256.695312 270.835938 256.835938 273.382812 257.175781 C 273.613281 257.207031 273.945312 257.105469 274.105469 256.941406 C 277.769531 253.234375 281.941406 250.222656 286.640625 247.941406 C 291.203125 245.730469 296 244.304688 301.054688 243.734375 C 302.246094 243.597656 303.433594 243.488281 304.625 243.367188 L 308.292969 243.367188 C 308.535156 243.402344 308.773438 243.445312 309.015625 243.476562 C 310.832031 243.6875 312.660156 243.820312 314.457031 244.113281 C 320.070312 245.046875 325.296875 247.042969 330.132812 250.011719 C 337.546875 254.558594 343.195312 260.714844 347.058594 268.464844 C 349.289062 272.929688 350.726562 277.742188 351.296875 282.691406 C 351.421875 283.824219 351.535156 284.964844 351.65625 286.097656 M 283.207031 260.265625 C 283.285156 260.359375 283.296875 260.40625 283.332031 260.421875 C 285.851562 261.648438 288.253906 263.089844 290.523438 264.726562 C 290.667969 264.832031 291.023438 264.789062 291.199219 264.679688 C 297.433594 260.769531 304.195312 259.417969 311.453125 260.691406 C 318.566406 261.941406 324.359375 265.460938 328.78125 271.089844 C 333.789062 277.453125 335.695312 284.652344 334.316406 292.664062 C 333.390625 298.03125 331.21875 302.847656 327.53125 306.882812 C 320.804688 314.234375 312.371094 317.277344 302.453125 315.992188 C 296.34375 315.203125 291.070312 312.589844 286.707031 308.21875 C 281.105469 302.613281 275.46875 297.046875 269.851562 291.453125 C 269.101562 290.707031 268.269531 290.109375 267.191406 289.980469 C 265.308594 289.75 263.597656 290.679688 262.785156 292.355469 C 262.058594 293.855469 262.152344 295.539062 263.726562 297.074219 C 269.988281 303.167969 276.191406 309.3125 282.449219 315.410156 C 283.519531 316.457031 284.667969 317.421875 285.882812 318.304688 C 290.449219 321.589844 295.605469 323.40625 301.179688 324.140625 C 305.558594 324.71875 309.90625 324.59375 314.210938 323.632812 C 322.4375 321.800781 329.246094 317.644531 334.613281 311.226562 C 339.042969 305.925781 341.722656 299.832031 342.65625 292.992188 C 343.195312 289.089844 343.085938 285.128906 342.320312 281.265625 C 341.078125 274.945312 338.378906 269.289062 334.054688 264.480469 C 325.804688 255.300781 315.425781 251.207031 303.078125 252.121094 C 298.328125 252.472656 293.835938 253.851562 289.605469 256.046875 C 287.332031 257.214844 285.1875 258.628906 283.207031 260.265625 M 280.191406 324.328125 C 280.019531 324.171875 279.851562 324.015625 279.683594 323.855469 C 277.121094 321.457031 274.546875 319.082031 272.015625 316.65625 C 271.527344 316.183594 271.074219 315.960938 270.382812 315.972656 C 267.820312 316.035156 265.253906 316.042969 262.730469 315.480469 C 250.179688 312.667969 242.886719 299.140625 247.515625 287.242188 C 251.164062 277.859375 261.265625 272.148438 271.230469 273.910156 C 275.695312 274.699219 279.617188 276.570312 282.832031 279.859375 C 286.753906 283.871094 290.792969 287.769531 294.761719 291.746094 C 295.667969 292.648438 296.703125 293.0625 297.949219 292.882812 C 299.566406 292.652344 300.855469 291.890625 301.4375 290.324219 C 302.011719 288.777344 301.734375 287.3125 300.554688 286.128906 C 296.390625 281.953125 292.328125 277.667969 287.996094 273.667969 C 279.597656 265.910156 269.695312 263.597656 258.738281 266.898438 C 244.007812 271.332031 235.382812 286.410156 238.746094 301.285156 C 241.816406 314.835938 253.777344 324.351562 267.773438 324.359375 C 271.683594 324.363281 275.589844 324.359375 279.5 324.359375 C 279.695312 324.359375 279.890625 324.34375 280.191406 324.328125 " fill-opacity="1" fill-rule="nonzero"/><path fill="#1c1c1c" d="M 129.003906 298.460938 C 129.214844 297.085938 130.414062 296.097656 131.785156 296.097656 L 140.949219 296.097656 L 140.949219 284.800781 L 131.785156 284.800781 C 130.414062 284.800781 129.25 283.8125 129.003906 282.4375 C 127.804688 275.199219 124.84375 268.210938 120.546875 262.246094 C 119.734375 261.117188 119.839844 259.5625 120.828125 258.574219 L 125.691406 253.703125 L 118.398438 246.433594 L 113.535156 251.304688 C 112.546875 252.292969 110.996094 252.398438 109.871094 251.585938 C 103.914062 247.246094 96.9375 244.3125 89.714844 243.113281 C 88.339844 242.902344 87.351562 241.703125 87.351562 240.324219 L 87.351562 231.148438 L 76.078125 231.148438 L 76.078125 240.324219 C 76.078125 241.703125 75.089844 242.867188 73.714844 243.113281 C 66.492188 244.3125 59.515625 247.28125 53.558594 251.585938 C 52.433594 252.398438 50.882812 252.292969 49.894531 251.304688 L 45.101562 246.433594 L 37.808594 253.738281 L 42.671875 258.609375 C 43.660156 259.597656 43.765625 261.152344 42.953125 262.28125 C 38.621094 268.246094 35.695312 275.234375 34.496094 282.472656 C 34.285156 283.847656 33.085938 284.835938 31.714844 284.835938 L 22.550781 284.835938 L 22.550781 296.132812 L 31.714844 296.132812 C 33.085938 296.132812 34.25 297.121094 34.496094 298.496094 C 35.695312 305.734375 38.65625 312.722656 42.953125 318.6875 C 43.765625 319.816406 43.660156 321.371094 42.671875 322.359375 L 37.808594 327.160156 L 45.101562 334.46875 L 49.964844 329.597656 C 50.953125 328.609375 52.503906 328.5 53.628906 329.3125 C 59.585938 333.65625 66.5625 336.585938 73.785156 337.785156 C 75.160156 337.996094 76.148438 339.195312 76.148438 340.574219 L 76.148438 349.75 L 87.421875 349.75 L 87.421875 340.574219 C 87.421875 339.195312 88.410156 338.03125 89.785156 337.785156 C 97.007812 336.585938 103.984375 333.65625 109.941406 329.3125 C 111.066406 328.5 112.617188 328.609375 113.605469 329.597656 L 118.46875 334.46875 L 125.761719 327.160156 L 120.898438 322.289062 C 119.910156 321.300781 119.804688 319.746094 120.617188 318.617188 C 124.878906 312.6875 127.804688 305.699219 129.003906 298.460938 Z M 81.75 332.808594 C 58.421875 332.808594 39.464844 313.816406 39.464844 290.449219 C 39.464844 267.082031 58.421875 248.089844 81.75 248.089844 C 105.078125 248.089844 124.035156 267.082031 124.035156 290.449219 C 124.035156 313.816406 105.078125 332.808594 81.75 332.808594 Z M 81.75 332.808594 " fill-opacity="1" fill-rule="nonzero"/><path fill="#1c1c1c" d="M 87.386719 281.976562 L 84.570312 281.976562 L 84.570312 287.625 L 87.386719 287.625 C 88.9375 287.625 90.207031 286.355469 90.207031 284.800781 C 90.207031 283.25 88.9375 281.976562 87.386719 281.976562 Z M 87.386719 281.976562 " fill-opacity="1" fill-rule="nonzero"/><path fill="#1c1c1c" d="M 64.835938 281.976562 C 63.285156 281.976562 62.015625 283.25 62.015625 284.800781 L 62.015625 287.625 L 67.65625 287.625 L 67.65625 284.800781 C 67.65625 283.25 66.386719 281.976562 64.835938 281.976562 Z M 64.835938 281.976562 " fill-opacity="1" fill-rule="nonzero"/><path fill="#1c1c1c" d="M 81.75 253.738281 C 61.558594 253.738281 45.101562 270.222656 45.101562 290.449219 C 45.101562 310.675781 61.558594 327.160156 81.75 327.160156 C 101.941406 327.160156 118.398438 310.675781 118.398438 290.449219 C 118.398438 270.222656 101.941406 253.738281 81.75 253.738281 Z M 73.292969 301.746094 C 73.292969 303.296875 72.023438 304.570312 70.472656 304.570312 C 68.921875 304.570312 67.65625 303.296875 67.65625 301.746094 L 67.65625 293.273438 L 62.015625 293.273438 L 62.015625 301.746094 C 62.015625 303.296875 60.75 304.570312 59.199219 304.570312 C 57.648438 304.570312 56.378906 303.296875 56.378906 301.746094 L 56.378906 284.800781 C 56.378906 280.140625 60.183594 276.332031 64.835938 276.332031 C 69.488281 276.332031 73.292969 280.140625 73.292969 284.800781 Z M 87.386719 293.273438 L 84.570312 293.273438 L 84.570312 301.746094 C 84.570312 303.296875 83.300781 304.570312 81.75 304.570312 C 80.199219 304.570312 78.929688 303.296875 78.929688 301.746094 L 78.929688 279.152344 C 78.929688 277.601562 80.199219 276.332031 81.75 276.332031 L 87.386719 276.332031 C 92.039062 276.332031 95.84375 280.140625 95.84375 284.800781 C 95.84375 289.460938 92.039062 293.273438 87.386719 293.273438 Z M 107.121094 301.746094 C 107.121094 303.296875 105.851562 304.570312 104.300781 304.570312 C 102.75 304.570312 101.484375 303.296875 101.484375 301.746094 L 101.484375 279.152344 C 101.484375 277.601562 102.75 276.332031 104.300781 276.332031 C 105.851562 276.332031 107.121094 277.601562 107.121094 279.152344 Z M 107.121094 301.746094 " fill-opacity="1" fill-rule="nonzero"/><g clip-path="url(#id3)"><path fill="#1c1c1c" d="M 146.585938 214.203125 C 146.585938 209.546875 142.78125 205.734375 138.128906 205.734375 C 134.464844 205.734375 131.328125 208.097656 130.164062 211.378906 L 118.398438 211.378906 C 117.410156 211.378906 116.457031 211.910156 115.964844 212.792969 L 100.109375 240.042969 C 101.90625 240.679688 103.632812 241.457031 105.324219 242.265625 L 120.015625 217.027344 L 130.164062 217.027344 C 131.328125 220.3125 134.464844 222.675781 138.128906 222.675781 C 142.78125 222.675781 146.585938 218.863281 146.585938 214.203125 Z M 138.128906 217.027344 C 136.578125 217.027344 135.308594 215.757812 135.308594 214.203125 C 135.308594 212.652344 136.578125 211.378906 138.128906 211.378906 C 139.679688 211.378906 140.949219 212.652344 140.949219 214.203125 C 140.949219 215.757812 139.679688 217.027344 138.128906 217.027344 Z M 138.128906 217.027344 " fill-opacity="1" fill-rule="nonzero"/></g><path fill="#1c1c1c" d="M 124.035156 358.222656 C 120.371094 358.222656 117.234375 360.589844 116.070312 363.871094 L 109.515625 363.871094 L 105.324219 338.632812 C 103.597656 339.480469 101.800781 340.257812 100.003906 340.890625 L 104.371094 367.152344 C 104.582031 368.496094 105.78125 369.519531 107.15625 369.519531 L 116.105469 369.519531 C 117.269531 372.800781 120.40625 375.167969 124.070312 375.167969 C 128.722656 375.167969 132.527344 371.355469 132.527344 366.695312 C 132.527344 362.035156 128.6875 358.222656 124.035156 358.222656 Z M 124.035156 369.519531 C 122.484375 369.519531 121.214844 368.246094 121.214844 366.695312 C 121.214844 365.140625 122.484375 363.871094 124.035156 363.871094 C 125.585938 363.871094 126.851562 365.140625 126.851562 366.695312 C 126.851562 368.246094 125.585938 369.519531 124.035156 369.519531 Z M 124.035156 369.519531 " fill-opacity="1" fill-rule="nonzero"/><path fill="#1c1c1c" d="M 8.457031 352.574219 C 13.109375 352.574219 16.914062 348.761719 16.914062 344.105469 C 16.914062 340.433594 14.554688 337.292969 11.277344 336.125 L 11.277344 328.535156 L 32.488281 311.523438 C 31.714844 309.6875 31.007812 307.816406 30.445312 305.910156 L 6.695312 324.972656 C 6.027344 325.5 5.636719 326.3125 5.636719 327.160156 L 5.636719 336.125 C 2.359375 337.292969 0 340.433594 0 344.105469 C 0 348.761719 3.804688 352.574219 8.457031 352.574219 Z M 8.457031 341.28125 C 10.007812 341.28125 11.277344 342.550781 11.277344 344.105469 C 11.277344 345.65625 10.007812 346.925781 8.457031 346.925781 C 6.90625 346.925781 5.636719 345.65625 5.636719 344.105469 C 5.636719 342.550781 6.90625 341.28125 8.457031 341.28125 Z M 8.457031 341.28125 " fill-opacity="1" fill-rule="nonzero"/><g clip-path="url(#id4)"><path fill="#1c1c1c" d="M 155.042969 307.394531 C 151.378906 307.394531 148.242188 309.757812 147.078125 313.039062 L 130.34375 313.039062 C 129.460938 314.980469 128.4375 316.886719 127.3125 318.6875 L 147.078125 318.6875 C 148.242188 321.972656 151.378906 324.335938 155.042969 324.335938 C 159.695312 324.335938 163.5 320.523438 163.5 315.863281 C 163.5 311.207031 159.695312 307.394531 155.042969 307.394531 Z M 155.042969 318.6875 C 153.492188 318.6875 152.222656 317.417969 152.222656 315.863281 C 152.222656 314.3125 153.492188 313.039062 155.042969 313.039062 C 156.59375 313.039062 157.863281 314.3125 157.863281 315.863281 C 157.863281 317.417969 156.59375 318.6875 155.042969 318.6875 Z M 155.042969 318.6875 " fill-opacity="1" fill-rule="nonzero"/></g><g clip-path="url(#id5)"><path fill="#1c1c1c" d="M 19.734375 222.183594 L 19.734375 236.796875 C 19.734375 237.75 20.191406 238.632812 21 239.160156 L 35.0625 248.550781 L 39.113281 244.492188 L 25.371094 235.3125 L 25.371094 222.183594 C 28.648438 221.015625 31.007812 217.875 31.007812 214.203125 C 31.007812 209.546875 27.203125 205.734375 22.550781 205.734375 C 17.902344 205.734375 14.09375 209.546875 14.09375 214.203125 C 14.09375 217.875 16.457031 221.015625 19.734375 222.183594 Z M 22.550781 211.378906 C 24.101562 211.378906 25.371094 212.652344 25.371094 214.203125 C 25.371094 215.757812 24.101562 217.027344 22.550781 217.027344 C 21 217.027344 19.734375 215.757812 19.734375 214.203125 C 19.734375 212.652344 21 211.378906 22.550781 211.378906 Z M 22.550781 211.378906 " fill-opacity="1" fill-rule="nonzero"/></g></svg>