<svg xmlns="http://www.w3.org/2000/svg" xmlns:xlink="http://www.w3.org/1999/xlink" width="500" zoomAndPan="magnify" viewBox="0 0 375 374.999991" height="500" preserveAspectRatio="xMidYMid meet" version="1.0"><defs><clipPath id="id1"><path d="M 0 3 L 177.75 3 L 177.75 161 L 0 161 Z M 0 3 " clip-rule="nonzero"/></clipPath><clipPath id="id2"><path d="M 210.429688 0 L 374.679688 0 L 374.679688 164.25 L 210.429688 164.25 Z M 210.429688 0 " clip-rule="nonzero"/></clipPath><clipPath id="id3"><path d="M 5.371094 188 L 169.621094 188 L 169.621094 375 L 5.371094 375 Z M 5.371094 188 " clip-rule="nonzero"/></clipPath><clipPath id="id4"><path d="M 205 187.5 L 373 187.5 L 373 375 L 205 375 Z M 205 187.5 " clip-rule="nonzero"/></clipPath></defs><g clip-path="url(#id1)"><path fill="#1c1c1c" d="M 146.027344 54.398438 C 144.191406 53.765625 142.285156 53.167969 140.316406 52.601562 C 140.644531 51.285156 140.941406 49.988281 141.203125 48.710938 C 145.523438 27.761719 142.703125 10.882812 133.050781 5.324219 C 123.792969 -0.00390625 108.65625 5.554688 93.371094 18.835938 C 91.902344 20.113281 90.425781 21.464844 88.957031 22.882812 C 87.972656 21.945312 86.996094 21.039062 86.019531 20.171875 C 70 5.96875 53.941406 -0.015625 44.300781 5.558594 C 35.054688 10.902344 32.316406 26.769531 36.207031 46.625 C 36.585938 48.542969 37.023438 50.5 37.519531 52.492188 C 35.246094 53.136719 33.054688 53.820312 30.957031 54.550781 C 12.175781 61.089844 0.179688 71.335938 0.179688 81.964844 C 0.179688 92.9375 13.054688 103.953125 32.617188 110.628906 C 34.160156 111.15625 35.761719 111.652344 37.414062 112.125 C 36.878906 114.277344 36.410156 116.386719 36.019531 118.449219 C 32.308594 137.957031 35.207031 153.449219 44.429688 158.757812 C 53.953125 164.242188 69.9375 158.605469 85.5 145.023438 C 86.734375 143.949219 87.96875 142.808594 89.199219 141.617188 C 90.808594 143.15625 92.410156 144.613281 93.996094 145.984375 C 109.074219 158.9375 123.964844 164.167969 133.175781 158.847656 C 142.6875 153.347656 145.785156 136.699219 141.765625 116.457031 C 141.460938 114.90625 141.101562 113.328125 140.707031 111.722656 C 141.828125 111.390625 142.929688 111.046875 144.003906 110.691406 C 164.34375 103.960938 177.570312 93.089844 177.570312 81.964844 C 177.570312 71.296875 165.1875 60.984375 146.027344 54.398438 Z M 141.621094 103.511719 C 140.652344 103.828125 139.652344 104.140625 138.640625 104.4375 C 136.394531 97.347656 133.367188 89.796875 129.652344 82 C 133.195312 74.390625 136.105469 66.941406 138.289062 59.890625 C 140.101562 60.414062 141.863281 60.96875 143.5625 61.550781 C 159.976562 67.195312 169.988281 75.539062 169.988281 81.964844 C 169.988281 88.808594 159.179688 97.699219 141.621094 103.511719 Z M 134.332031 117.921875 C 136.113281 126.875 136.363281 134.96875 135.183594 141.300781 C 134.128906 146.988281 132.003906 150.777344 129.375 152.292969 C 123.785156 155.527344 111.832031 151.324219 98.941406 140.25 C 97.460938 138.976562 95.96875 137.621094 94.480469 136.1875 C 99.476562 130.730469 104.472656 124.382812 109.351562 117.335938 C 117.921875 116.582031 126.023438 115.335938 133.375 113.640625 C 133.734375 115.097656 134.054688 116.523438 134.332031 117.921875 Z M 60.660156 151.734375 C 55.199219 153.664062 50.847656 153.71875 48.21875 152.203125 C 42.621094 148.980469 40.296875 136.539062 43.46875 119.859375 C 43.832031 117.949219 44.265625 115.984375 44.765625 113.980469 C 52.03125 115.582031 60.074219 116.738281 68.667969 117.429688 C 73.578125 124.328125 78.71875 130.667969 83.894531 136.214844 C 82.765625 137.308594 81.636719 138.347656 80.515625 139.320312 C 73.632812 145.335938 66.738281 149.597656 60.660156 151.734375 Z M 35.070312 103.46875 C 26.421875 100.515625 19.277344 96.683594 14.382812 92.488281 C 9.980469 88.730469 7.761719 84.996094 7.761719 81.964844 C 7.761719 75.519531 17.390625 67.289062 33.453125 61.699219 C 35.402344 61.019531 37.441406 60.378906 39.558594 59.777344 C 41.777344 66.988281 44.691406 74.527344 48.203125 82.144531 C 44.644531 89.882812 41.691406 97.539062 39.449219 104.839844 C 37.941406 104.402344 36.476562 103.945312 35.070312 103.46875 Z M 43.648438 45.171875 C 40.316406 28.160156 42.527344 15.328125 48.101562 12.105469 C 54.035156 8.675781 67.15625 13.566406 80.984375 25.828125 C 81.871094 26.613281 82.757812 27.433594 83.652344 28.28125 C 78.496094 33.808594 73.40625 40.097656 68.539062 46.953125 C 60.195312 47.726562 52.210938 48.964844 44.867188 50.628906 C 44.40625 48.773438 43.996094 46.953125 43.648438 45.171875 Z M 120.160156 64.035156 C 118.410156 61.007812 116.605469 58.054688 114.769531 55.179688 C 120.433594 55.894531 125.851562 56.839844 130.945312 58 C 129.417969 62.894531 127.511719 68.007812 125.269531 73.253906 C 123.660156 70.203125 121.957031 67.128906 120.160156 64.035156 Z M 88.957031 33.691406 C 92.457031 37.472656 95.957031 41.691406 99.402344 46.273438 C 95.929688 46.109375 92.417969 46.023438 88.875 46.023438 C 85.371094 46.023438 81.882812 46.105469 78.433594 46.269531 C 81.878906 41.730469 85.410156 37.515625 88.957031 33.691406 Z M 57.558594 64.089844 C 55.804688 67.125 54.132812 70.183594 52.550781 73.25 C 50.34375 68.023438 48.453125 62.882812 46.914062 57.921875 C 51.972656 56.789062 57.371094 55.867188 62.996094 55.164062 C 61.132812 58.066406 59.316406 61.042969 57.558594 64.089844 Z M 63.15625 109.300781 C 57.347656 108.660156 51.867188 107.78125 46.808594 106.679688 C 48.375 101.628906 50.304688 96.382812 52.558594 91.042969 C 54.144531 94.109375 55.824219 97.167969 57.585938 100.210938 C 59.382812 103.308594 61.246094 106.339844 63.15625 109.300781 Z M 89.167969 130.769531 C 85.578125 126.902344 81.996094 122.621094 78.496094 118.019531 C 81.890625 118.152344 85.355469 118.21875 88.875 118.21875 C 92.492188 118.21875 96.066406 118.136719 99.582031 117.984375 C 96.128906 122.667969 92.636719 126.957031 89.167969 130.769531 Z M 125.335938 90.773438 C 127.707031 96.171875 129.710938 101.386719 131.296875 106.355469 C 126.15625 107.523438 120.597656 108.464844 114.75 109.171875 C 116.59375 106.257812 118.410156 103.246094 120.195312 100.15625 C 122.003906 97.027344 123.714844 93.894531 125.335938 90.773438 Z M 113.628906 96.378906 C 110.855469 101.179688 108.007812 105.757812 105.117188 110.082031 C 99.859375 110.457031 94.417969 110.652344 88.875 110.652344 C 83.351562 110.652344 77.984375 110.484375 72.8125 110.144531 C 69.804688 105.765625 66.898438 101.171875 64.144531 96.417969 C 61.398438 91.679688 58.867188 86.898438 56.578125 82.144531 C 58.867188 77.386719 61.390625 72.597656 64.121094 67.867188 C 66.859375 63.125 69.742188 58.550781 72.722656 54.195312 C 77.996094 53.796875 83.410156 53.589844 88.875 53.589844 C 94.371094 53.589844 99.78125 53.800781 105.054688 54.199219 C 107.992188 58.523438 110.855469 63.082031 113.605469 67.828125 C 116.386719 72.625 118.941406 77.378906 121.25 82.042969 C 118.949219 86.78125 116.398438 91.582031 113.628906 96.378906 Z M 129.257812 11.878906 C 135.203125 15.300781 137.511719 29.09375 133.777344 47.183594 C 133.542969 48.335938 133.273438 49.511719 132.980469 50.703125 C 125.621094 49.007812 117.632812 47.746094 109.269531 46.960938 C 104.390625 40.03125 99.339844 33.730469 94.265625 28.277344 C 95.632812 26.96875 96.996094 25.71875 98.347656 24.539062 C 111.445312 13.160156 123.6875 8.667969 129.257812 11.878906 Z M 88.875 66.144531 C 97.621094 66.144531 104.714844 73.226562 104.714844 81.964844 C 104.714844 90.695312 97.621094 97.78125 88.875 97.78125 C 80.132812 97.78125 73.035156 90.695312 73.035156 81.964844 C 73.035156 73.226562 80.132812 66.144531 88.875 66.144531 Z M 88.875 66.144531 " fill-opacity="1" fill-rule="nonzero"/></g><g clip-path="url(#id2)"><path fill="#1c1c1c" d="M 210.429688 0 L 374.679688 0 L 374.679688 164.25 L 210.429688 164.25 Z M 210.429688 0 " fill-opacity="1" fill-rule="nonzero"/></g><path fill="#f8f0e4" d="M 253.617188 137.257812 L 266.1875 129.65625 C 268.613281 133.953125 270.816406 137.589844 276.109375 137.589844 C 281.179688 137.589844 284.382812 135.601562 284.382812 127.890625 L 284.382812 75.40625 L 299.8125 75.40625 L 299.8125 128.109375 C 299.8125 144.089844 290.445312 151.371094 276.773438 151.371094 C 264.421875 151.371094 257.253906 144.976562 253.617188 137.257812 " fill-opacity="1" fill-rule="nonzero"/><path fill="#f8f0e4" d="M 308.195312 135.601562 L 320.765625 128.328125 C 324.078125 133.730469 328.375 137.699219 335.976562 137.699219 C 342.375 137.699219 346.457031 134.503906 346.457031 130.089844 C 346.457031 124.796875 342.265625 122.925781 335.207031 119.839844 L 331.351562 118.183594 C 320.214844 113.441406 312.828125 107.492188 312.828125 94.917969 C 312.828125 83.34375 321.644531 74.523438 335.433594 74.523438 C 345.242188 74.523438 352.300781 77.941406 357.371094 86.871094 L 345.351562 94.589844 C 342.707031 89.851562 339.839844 87.976562 335.433594 87.976562 C 330.910156 87.976562 328.042969 90.84375 328.042969 94.589844 C 328.042969 99.222656 330.910156 101.097656 337.523438 103.964844 L 341.378906 105.613281 C 354.5 111.242188 361.894531 116.96875 361.894531 129.871094 C 361.894531 143.761719 350.980469 151.375 336.3125 151.375 C 321.980469 151.375 312.71875 144.535156 308.195312 135.601562 " fill-opacity="1" fill-rule="nonzero"/><g clip-path="url(#id3)"><path fill="#1c1c1c" d="M 20.28125 355.839844 L 5.324219 188.03125 L 169.667969 188.03125 L 154.699219 355.816406 L 87.390625 374.476562 Z M 20.28125 355.839844 " fill-opacity="1" fill-rule="nonzero"/></g><path fill="#1c1c1c" d="M 141.878906 345.132812 L 154.675781 201.753906 L 87.496094 201.753906 L 87.496094 360.21875 Z M 141.878906 345.132812 " fill-opacity="1" fill-rule="nonzero"/><path fill="#f8f0e4" d="M 87.425781 222.332031 L 35.902344 222.332031 L 41.453125 284.570312 L 87.496094 284.570312 L 87.496094 263.992188 L 60.273438 263.992188 L 58.390625 242.917969 L 87.496094 242.917969 L 87.496094 222.332031 Z M 87.496094 317.375 L 87.410156 317.398438 L 64.496094 311.210938 L 63.039062 294.796875 L 42.375 294.796875 L 45.257812 327.109375 L 87.402344 338.765625 L 87.496094 338.734375 Z M 87.496094 317.375 " fill-opacity="1" fill-rule="nonzero"/><path fill="#f8f0e4" d="M 87.425781 284.570312 L 112.765625 284.570312 L 110.433594 311.257812 L 87.484375 317.449219 L 87.484375 338.863281 L 129.667969 327.167969 L 135.316406 263.980469 L 87.496094 263.980469 Z M 138.472656 227.855469 L 138.960938 222.332031 L 87.414062 222.332031 L 87.414062 242.910156 L 137.109375 242.910156 L 137.519531 238.285156 Z M 138.472656 227.855469 " fill-opacity="1" fill-rule="nonzero"/><g clip-path="url(#id4)"><path fill="#1c1c1c" d="M 372.976562 187.5 L 205.023438 187.5 L 219.84375 355.261719 L 289 375 L 358.15625 355.261719 Z M 372.976562 187.5 " fill-opacity="1" fill-rule="nonzero"/></g><path fill="#1c1c1c" d="M 289 202.300781 L 289 359.703125 L 344.324219 343.914062 L 356.675781 202.300781 Z M 289 202.300781 " fill-opacity="1" fill-rule="nonzero"/><path fill="#f8f0e4" d="M 333.953125 226.972656 L 289 226.972656 L 289 246.710938 L 313.203125 246.710938 L 311.722656 266.449219 L 289 266.449219 L 289 286.183594 L 310.734375 286.183594 L 309.253906 308.386719 L 289 315.296875 L 289 336.019531 L 328.023438 323.191406 L 331.480469 266.449219 Z M 333.953125 226.972656 " fill-opacity="1" fill-rule="nonzero"/><path fill="#f8f0e4" d="M 289 226.972656 L 289 246.710938 L 245.035156 246.710938 L 243.554688 226.972656 Z M 266.277344 266.449219 L 267.265625 286.183594 L 289 286.183594 L 289 266.449219 Z M 268.253906 296.050781 L 248.496094 296.050781 L 249.976562 323.191406 L 289 336.019531 L 289 315.296875 L 268.746094 308.386719 Z M 268.253906 296.050781 " fill-opacity="1" fill-rule="nonzero"/></svg>