<svg xmlns="http://www.w3.org/2000/svg" xmlns:xlink="http://www.w3.org/1999/xlink" width="500" zoomAndPan="magnify" viewBox="0 0 375 374.999991" height="500" preserveAspectRatio="xMidYMid meet" version="1.0"><path fill="#7e09dc" d="M 40.1875 48.386719 C 38.515625 48.386719 37.136719 47.035156 37.136719 45.363281 C 37.136719 43.691406 38.457031 42.339844 40.121094 42.339844 L 40.1875 42.339844 C 41.851562 42.339844 43.207031 43.691406 43.207031 45.363281 C 43.207031 47.035156 41.851562 48.386719 40.1875 48.386719 Z M 40.1875 48.386719 " fill-opacity="1" fill-rule="nonzero"/><path fill="#7e09dc" d="M 324.210938 308.46875 C 322.539062 308.46875 321.160156 307.113281 321.160156 305.441406 C 321.160156 303.769531 322.480469 302.417969 324.144531 302.417969 L 324.210938 302.417969 C 325.875 302.417969 327.230469 303.769531 327.230469 305.441406 C 327.230469 307.113281 325.875 308.46875 324.210938 308.46875 Z M 324.210938 308.46875 " fill-opacity="1" fill-rule="nonzero"/><path fill="#7e09dc" d="M 106.660156 375 C 104.988281 375 103.609375 373.648438 103.609375 371.976562 C 103.609375 370.304688 104.929688 368.949219 106.59375 368.949219 L 106.660156 368.949219 C 108.324219 368.949219 109.683594 370.304688 109.683594 371.976562 C 109.683594 373.648438 108.324219 375 106.660156 375 Z M 106.660156 375 " fill-opacity="1" fill-rule="nonzero"/><path fill="#7e09dc" d="M 40.1875 284.273438 C 38.515625 284.273438 37.136719 282.921875 37.136719 281.25 C 37.136719 279.578125 38.457031 278.226562 40.121094 278.226562 L 40.1875 278.226562 C 41.851562 278.226562 43.207031 279.578125 43.207031 281.25 C 43.207031 282.921875 41.851562 284.273438 40.1875 284.273438 Z M 40.1875 284.273438 " fill-opacity="1" fill-rule="nonzero"/><path fill="#7e09dc" d="M 372.554688 91.007812 C 370.882812 91.007812 369.503906 89.65625 369.503906 87.984375 C 369.503906 86.3125 370.824219 84.960938 372.488281 84.960938 L 372.554688 84.960938 C 374.21875 84.960938 375.578125 86.3125 375.578125 87.984375 C 375.578125 89.65625 374.21875 91.007812 372.554688 91.007812 Z M 372.554688 91.007812 " fill-opacity="1" fill-rule="nonzero"/><path fill="#7e09dc" d="M 194.101562 350.804688 C 120.792969 350.804688 61.15625 291.113281 61.15625 217.742188 C 61.15625 144.371094 120.792969 84.679688 194.101562 84.679688 C 230.585938 84.679688 264.613281 99.171875 289.910156 125.492188 C 291.066406 126.699219 291.03125 128.613281 289.828125 129.769531 C 288.636719 130.933594 286.726562 130.890625 285.558594 129.6875 C 261.40625 104.558594 228.925781 90.726562 194.101562 90.726562 C 124.128906 90.726562 67.199219 147.707031 67.199219 217.742188 C 67.199219 287.777344 124.128906 344.757812 194.101562 344.757812 C 264.074219 344.757812 321.007812 287.777344 321.007812 217.742188 C 321.007812 200.292969 317.535156 183.386719 310.691406 167.507812 C 310.03125 165.972656 310.738281 164.191406 312.265625 163.53125 C 313.789062 162.855469 315.582031 163.578125 316.238281 165.109375 C 323.414062 181.757812 327.050781 199.464844 327.050781 217.742188 C 327.050781 291.113281 267.410156 350.804688 194.101562 350.804688 Z M 194.101562 350.804688 " fill-opacity="1" fill-rule="nonzero"/><path fill="#7e09dc" d="M 224.890625 336.1875 C 224.6875 336.1875 224.488281 336.167969 224.289062 336.128906 C 222.652344 335.796875 221.589844 334.207031 221.921875 332.566406 C 222.039062 331.96875 233.949219 271.863281 233.949219 217.742188 C 233.949219 163.601562 222.039062 103.515625 221.921875 102.917969 C 221.589844 101.273438 222.652344 99.6875 224.289062 99.355469 C 225.898438 99.023438 227.515625 100.082031 227.847656 101.722656 C 227.96875 102.332031 239.992188 163.003906 239.992188 217.742188 C 239.992188 272.476562 227.96875 333.152344 227.847656 333.757812 C 227.558594 335.195312 226.300781 336.1875 224.890625 336.1875 Z M 224.890625 336.1875 " fill-opacity="1" fill-rule="nonzero"/><path fill="#7e09dc" d="M 255.097656 324.089844 C 254.761719 324.089844 254.425781 324.035156 254.089844 323.917969 C 252.519531 323.355469 251.695312 321.632812 252.25 320.054688 C 252.429688 319.546875 270.207031 268.613281 270.207031 217.742188 C 270.207031 166.863281 252.429688 115.933594 252.25 115.425781 C 251.695312 113.851562 252.519531 112.125 254.089844 111.566406 C 255.660156 111.003906 257.382812 111.832031 257.949219 113.40625 C 258.132812 113.929688 276.25 165.800781 276.25 217.742188 C 276.25 269.679688 258.132812 321.558594 257.949219 322.078125 C 257.507812 323.316406 256.34375 324.089844 255.097656 324.089844 Z M 255.097656 324.089844 " fill-opacity="1" fill-rule="nonzero"/><path fill="#7e09dc" d="M 285.316406 300.019531 C 284.890625 300.019531 284.457031 299.933594 284.050781 299.742188 C 282.535156 299.046875 281.875 297.246094 282.570312 295.730469 C 282.746094 295.34375 300.421875 256.488281 300.421875 217.742188 C 300.421875 205.898438 298.785156 192.902344 295.566406 179.128906 C 295.1875 177.5 296.195312 175.875 297.820312 175.492188 C 299.507812 175.113281 301.070312 176.128906 301.453125 177.75 C 304.777344 191.976562 306.464844 205.433594 306.464844 217.742188 C 306.464844 257.847656 288.808594 296.628906 288.058594 298.261719 C 287.550781 299.371094 286.453125 300.019531 285.316406 300.019531 Z M 285.316406 300.019531 " fill-opacity="1" fill-rule="nonzero"/><path fill="#7e09dc" d="M 153.234375 193.546875 C 153.175781 193.546875 153.117188 193.546875 153.050781 193.542969 C 151.386719 193.441406 150.117188 192.007812 150.21875 190.339844 C 152.972656 144.648438 161.40625 102.148438 161.488281 101.726562 C 161.820312 100.082031 163.445312 99.03125 165.046875 99.355469 C 166.683594 99.6875 167.746094 101.277344 167.414062 102.917969 C 167.332031 103.335938 158.976562 145.445312 156.25 190.707031 C 156.15625 192.3125 154.820312 193.546875 153.234375 193.546875 Z M 153.234375 193.546875 " fill-opacity="1" fill-rule="nonzero"/><path fill="#7e09dc" d="M 164.445312 336.1875 C 163.035156 336.1875 161.78125 335.195312 161.488281 333.757812 C 161.40625 333.335938 152.976562 290.835938 150.21875 245.144531 C 150.117188 243.476562 151.386719 242.042969 153.050781 241.941406 C 154.898438 241.78125 156.15625 243.109375 156.25 244.777344 C 158.980469 290.054688 167.332031 332.148438 167.414062 332.566406 C 167.746094 334.207031 166.683594 335.796875 165.046875 336.128906 C 164.847656 336.167969 164.648438 336.1875 164.445312 336.1875 Z M 164.445312 336.1875 " fill-opacity="1" fill-rule="nonzero"/><path fill="#7e09dc" d="M 134.238281 324.089844 C 132.992188 324.089844 131.828125 323.316406 131.386719 322.074219 C 131.203125 321.554688 113.085938 269.679688 113.085938 217.742188 C 113.085938 165.804688 131.203125 113.925781 131.386719 113.40625 C 131.949219 111.835938 133.671875 111.019531 135.246094 111.5625 C 136.816406 112.125 137.640625 113.847656 137.085938 115.425781 C 136.90625 115.933594 119.128906 166.867188 119.128906 217.742188 C 119.128906 268.613281 136.90625 319.546875 137.085938 320.054688 C 137.640625 321.632812 136.816406 323.355469 135.246094 323.917969 C 134.910156 324.035156 134.574219 324.089844 134.238281 324.089844 Z M 134.238281 324.089844 " fill-opacity="1" fill-rule="nonzero"/><path fill="#7e09dc" d="M 104.023438 300.019531 C 102.882812 300.019531 101.785156 299.371094 101.277344 298.261719 C 100.527344 296.628906 82.871094 257.839844 82.871094 217.742188 C 82.871094 177.636719 100.527344 138.851562 101.277344 137.222656 C 101.972656 135.699219 103.792969 135.050781 105.285156 135.738281 C 106.800781 136.4375 107.460938 138.234375 106.765625 139.75 C 106.589844 140.140625 88.914062 178.996094 88.914062 217.742188 C 88.914062 256.484375 106.589844 295.34375 106.765625 295.730469 C 107.460938 297.25 106.800781 299.046875 105.285156 299.742188 C 104.878906 299.933594 104.445312 300.019531 104.023438 300.019531 Z M 104.023438 300.019531 " fill-opacity="1" fill-rule="nonzero"/><path fill="#7e09dc" d="M 130.648438 220.765625 L 73.304688 220.765625 C 71.636719 220.765625 70.285156 219.414062 70.285156 217.742188 C 70.285156 216.070312 71.636719 214.71875 73.304688 214.71875 L 130.648438 214.71875 C 132.320312 214.71875 133.671875 216.070312 133.671875 217.742188 C 133.671875 219.414062 132.320312 220.765625 130.648438 220.765625 Z M 130.648438 220.765625 " fill-opacity="1" fill-rule="nonzero"/><path fill="#7e09dc" d="M 316.03125 220.765625 L 172.949219 220.765625 C 171.28125 220.765625 169.929688 219.414062 169.929688 217.742188 C 169.929688 216.070312 171.28125 214.71875 172.949219 214.71875 L 316.03125 214.71875 C 317.699219 214.71875 319.050781 216.070312 319.050781 217.742188 C 319.050781 219.414062 317.699219 220.765625 316.03125 220.765625 Z M 316.03125 220.765625 " fill-opacity="1" fill-rule="nonzero"/><path fill="#7e09dc" d="M 194.167969 262.601562 C 139.476562 262.601562 78.859375 250.570312 78.25 250.445312 C 76.617188 250.113281 75.554688 248.527344 75.882812 246.886719 C 76.214844 245.242188 77.84375 244.179688 79.441406 244.515625 C 80.039062 244.632812 140.089844 256.554688 194.167969 256.554688 C 248.257812 256.554688 308.292969 244.632812 308.890625 244.515625 C 310.5 244.175781 312.117188 245.25 312.449219 246.886719 C 312.78125 248.527344 311.714844 250.113281 310.082031 250.445312 C 309.472656 250.570312 248.855469 262.601562 194.167969 262.601562 Z M 194.167969 262.601562 " fill-opacity="1" fill-rule="nonzero"/><path fill="#7e09dc" d="M 194.167969 298.890625 C 142.273438 298.890625 90.441406 280.757812 89.925781 280.574219 C 88.355469 280.015625 87.527344 278.289062 88.082031 276.714844 C 88.648438 275.136719 90.371094 274.328125 91.941406 274.871094 C 92.449219 275.050781 143.335938 292.84375 194.164062 292.84375 C 244.996094 292.84375 295.882812 275.050781 296.390625 274.871094 C 297.960938 274.316406 299.683594 275.136719 300.25 276.714844 C 300.804688 278.289062 299.976562 280.015625 298.40625 280.574219 C 297.890625 280.757812 246.058594 298.890625 194.167969 298.890625 Z M 194.167969 298.890625 " fill-opacity="1" fill-rule="nonzero"/><path fill="#7e09dc" d="M 194.167969 329.132812 C 154.09375 329.132812 115.347656 311.460938 113.71875 310.710938 C 112.199219 310.015625 111.539062 308.214844 112.238281 306.699219 C 112.933594 305.175781 114.75 304.527344 116.242188 305.21875 C 116.632812 305.394531 155.453125 323.085938 194.167969 323.085938 C 232.875 323.085938 271.699219 305.394531 272.089844 305.21875 C 273.59375 304.527344 275.398438 305.175781 276.097656 306.699219 C 276.792969 308.21875 276.132812 310.015625 274.613281 310.710938 C 272.988281 311.460938 234.230469 329.132812 194.167969 329.132812 Z M 194.167969 329.132812 " fill-opacity="1" fill-rule="nonzero"/><path fill="#7e09dc" d="M 78.839844 190.023438 C 77.429688 190.023438 76.171875 189.03125 75.882812 187.59375 C 75.554688 185.953125 76.617188 184.363281 78.25 184.03125 C 78.859375 183.910156 139.476562 171.878906 194.167969 171.878906 C 248.855469 171.878906 309.472656 183.910156 310.082031 184.03125 C 311.714844 184.363281 312.777344 185.953125 312.449219 187.59375 C 312.117188 189.238281 310.5 190.289062 308.890625 189.964844 C 308.292969 189.84375 248.242188 177.925781 194.167969 177.925781 C 140.074219 177.925781 80.039062 189.84375 79.441406 189.964844 C 79.242188 190.003906 79.042969 190.023438 78.839844 190.023438 Z M 78.839844 190.023438 " fill-opacity="1" fill-rule="nonzero"/><path fill="#7e09dc" d="M 90.933594 159.78125 C 89.6875 159.78125 88.523438 159.007812 88.082031 157.765625 C 87.527344 156.1875 88.355469 154.464844 89.925781 153.902344 C 90.445312 153.71875 142.277344 135.585938 194.167969 135.585938 C 225.527344 135.585938 256.558594 142.070312 277.058594 147.511719 C 278.675781 147.941406 279.632812 149.597656 279.207031 151.210938 C 278.777344 152.824219 277.152344 153.8125 275.511719 153.359375 C 255.351562 148.007812 224.878906 141.636719 194.167969 141.636719 C 143.335938 141.636719 92.449219 159.425781 91.941406 159.609375 C 91.605469 159.726562 91.269531 159.78125 90.933594 159.78125 Z M 90.933594 159.78125 " fill-opacity="1" fill-rule="nonzero"/><path fill="#7e09dc" d="M 114.980469 129.539062 C 113.84375 129.539062 112.746094 128.890625 112.238281 127.777344 C 111.539062 126.261719 112.199219 124.464844 113.71875 123.765625 C 115.347656 123.015625 154.101562 105.34375 194.167969 105.34375 C 234.238281 105.34375 272.988281 123.015625 274.613281 123.765625 C 276.132812 124.464844 276.792969 126.265625 276.097656 127.777344 C 275.398438 129.300781 273.59375 129.957031 272.089844 129.261719 C 271.699219 129.082031 232.878906 111.394531 194.167969 111.394531 C 155.460938 111.394531 116.632812 129.082031 116.242188 129.261719 C 115.835938 129.449219 115.40625 129.539062 114.980469 129.539062 Z M 114.980469 129.539062 " fill-opacity="1" fill-rule="nonzero"/><path fill="#7e09dc" d="M 194.167969 341.734375 C 192.496094 341.734375 191.144531 340.378906 191.144531 338.707031 L 191.144531 95.769531 C 191.144531 94.097656 192.496094 92.746094 194.167969 92.746094 C 195.835938 92.746094 197.1875 94.097656 197.1875 95.769531 L 197.1875 338.707031 C 197.1875 340.378906 195.835938 341.734375 194.167969 341.734375 Z M 194.167969 341.734375 " fill-opacity="1" fill-rule="nonzero"/><path fill="#7e09dc" d="M 194.101562 78.628906 C 192.429688 78.628906 191.078125 77.277344 191.078125 75.605469 L 191.078125 3.023438 C 191.078125 1.351562 192.429688 0 194.101562 0 C 195.773438 0 197.125 1.351562 197.125 3.023438 L 197.125 75.605469 C 197.125 77.277344 195.773438 78.628906 194.101562 78.628906 Z M 194.101562 78.628906 " fill-opacity="1" fill-rule="nonzero"/><path fill="#7e09dc" d="M 15.832031 169.355469 C 14.160156 169.355469 12.808594 168.003906 12.808594 166.332031 C 12.808594 152.285156 26.039062 145.734375 26.609375 145.460938 C 28.105469 144.734375 29.90625 145.367188 30.632812 146.863281 C 31.359375 148.363281 30.734375 150.171875 29.238281 150.902344 C 28.816406 151.113281 18.851562 156.125 18.851562 166.332031 C 18.851562 168.003906 17.5 169.355469 15.832031 169.355469 Z M 15.832031 169.355469 " fill-opacity="1" fill-rule="nonzero"/><path fill="#7e09dc" d="M 27.917969 151.210938 C 27.476562 151.210938 27.027344 151.113281 26.609375 150.910156 C 26.039062 150.636719 12.808594 144.085938 12.808594 130.042969 C 12.808594 128.371094 14.160156 127.015625 15.832031 127.015625 C 17.5 127.015625 18.851562 128.371094 18.851562 130.042969 C 18.851562 140.332031 29.128906 145.410156 29.226562 145.464844 C 30.730469 146.191406 31.363281 147.996094 30.636719 149.496094 C 30.117188 150.578125 29.039062 151.210938 27.917969 151.210938 Z M 27.917969 151.210938 " fill-opacity="1" fill-rule="nonzero"/><path fill="#7e09dc" d="M 3.75 151.210938 C 2.628906 151.210938 1.554688 150.582031 1.03125 149.507812 C 0.304688 148.007812 0.929688 146.199219 2.421875 145.46875 C 2.847656 145.253906 12.808594 140.246094 12.808594 130.039062 C 12.808594 128.367188 14.160156 127.015625 15.832031 127.015625 C 17.5 127.015625 18.851562 128.367188 18.851562 130.039062 C 18.851562 144.085938 5.621094 150.636719 5.054688 150.90625 C 4.636719 151.113281 4.1875 151.210938 3.75 151.210938 Z M 3.75 151.210938 " fill-opacity="1" fill-rule="nonzero"/><path fill="#7e09dc" d="M 15.832031 169.355469 C 14.160156 169.355469 12.808594 168.003906 12.808594 166.332031 C 12.808594 156.042969 2.535156 150.960938 2.433594 150.910156 C 0.929688 150.183594 0.300781 148.375 1.023438 146.875 C 1.75 145.363281 3.574219 144.730469 5.054688 145.464844 C 5.621094 145.734375 18.851562 152.285156 18.851562 166.332031 C 18.851562 168.003906 17.5 169.355469 15.832031 169.355469 Z M 15.832031 169.355469 " fill-opacity="1" fill-rule="nonzero"/><path fill="#7e09dc" d="M 299.855469 169.355469 C 298.183594 169.355469 296.832031 168.003906 296.832031 166.332031 C 296.832031 152.285156 310.066406 145.734375 310.632812 145.460938 C 312.128906 144.734375 313.929688 145.367188 314.65625 146.863281 C 315.382812 148.363281 314.757812 150.171875 313.261719 150.902344 C 312.839844 151.113281 302.875 156.125 302.875 166.332031 C 302.875 168.003906 301.523438 169.355469 299.855469 169.355469 Z M 299.855469 169.355469 " fill-opacity="1" fill-rule="nonzero"/><path fill="#7e09dc" d="M 311.941406 151.210938 C 311.5 151.210938 311.050781 151.113281 310.632812 150.910156 C 310.066406 150.636719 296.832031 144.085938 296.832031 130.042969 C 296.832031 128.371094 298.183594 127.015625 299.855469 127.015625 C 301.523438 127.015625 302.875 128.371094 302.875 130.042969 C 302.875 140.332031 313.152344 145.410156 313.25 145.464844 C 314.753906 146.191406 315.386719 147.996094 314.660156 149.496094 C 314.140625 150.578125 313.0625 151.210938 311.941406 151.210938 Z M 311.941406 151.210938 " fill-opacity="1" fill-rule="nonzero"/><path fill="#7e09dc" d="M 287.777344 151.210938 C 286.65625 151.210938 285.582031 150.582031 285.054688 149.507812 C 284.328125 148.007812 284.953125 146.199219 286.449219 145.46875 C 286.871094 145.253906 296.832031 140.246094 296.832031 130.039062 C 296.832031 128.367188 298.183594 127.015625 299.855469 127.015625 C 301.523438 127.015625 302.875 128.367188 302.875 130.039062 C 302.875 144.085938 289.644531 150.636719 289.078125 150.90625 C 288.660156 151.113281 288.210938 151.210938 287.777344 151.210938 Z M 287.777344 151.210938 " fill-opacity="1" fill-rule="nonzero"/><path fill="#7e09dc" d="M 299.855469 169.355469 C 298.183594 169.355469 296.832031 168.003906 296.832031 166.332031 C 296.832031 156.042969 286.558594 150.960938 286.460938 150.910156 C 284.953125 150.183594 284.324219 148.375 285.050781 146.875 C 285.773438 145.363281 287.605469 144.730469 289.082031 145.464844 C 289.648438 145.734375 302.878906 152.285156 302.878906 166.332031 C 302.875 168.003906 301.523438 169.355469 299.855469 169.355469 Z M 299.855469 169.355469 " fill-opacity="1" fill-rule="nonzero"/><path fill="#7e09dc" d="M 151.800781 238.402344 C 150.128906 238.402344 148.777344 237.050781 148.777344 235.378906 C 148.777344 221.332031 162.011719 214.78125 162.578125 214.511719 C 164.082031 213.777344 165.867188 214.421875 166.601562 215.910156 C 167.328125 217.410156 166.703125 219.21875 165.207031 219.949219 C 164.785156 220.164062 154.820312 225.171875 154.820312 235.378906 C 154.820312 237.050781 153.46875 238.402344 151.800781 238.402344 Z M 151.800781 238.402344 " fill-opacity="1" fill-rule="nonzero"/><path fill="#7e09dc" d="M 163.886719 220.257812 C 163.445312 220.257812 162.996094 220.164062 162.578125 219.957031 C 162.011719 219.6875 148.777344 213.136719 148.777344 199.089844 C 148.777344 197.417969 150.128906 196.066406 151.800781 196.066406 C 153.46875 196.066406 154.820312 197.417969 154.820312 199.089844 C 154.820312 209.378906 165.097656 214.457031 165.195312 214.511719 C 166.699219 215.238281 167.332031 217.042969 166.605469 218.542969 C 166.085938 219.625 165.007812 220.257812 163.886719 220.257812 Z M 163.886719 220.257812 " fill-opacity="1" fill-rule="nonzero"/><path fill="#7e09dc" d="M 139.71875 220.257812 C 138.597656 220.257812 137.523438 219.632812 137 218.558594 C 136.273438 217.058594 136.898438 215.25 138.390625 214.515625 C 138.816406 214.304688 148.777344 209.296875 148.777344 199.089844 C 148.777344 197.417969 150.128906 196.066406 151.800781 196.066406 C 153.46875 196.066406 154.820312 197.417969 154.820312 199.089844 C 154.820312 213.132812 141.589844 219.683594 141.023438 219.957031 C 140.605469 220.164062 140.15625 220.257812 139.71875 220.257812 Z M 139.71875 220.257812 " fill-opacity="1" fill-rule="nonzero"/><path fill="#7e09dc" d="M 151.800781 238.402344 C 150.128906 238.402344 148.777344 237.050781 148.777344 235.378906 C 148.777344 225.089844 138.503906 220.011719 138.402344 219.957031 C 136.898438 219.230469 136.269531 217.421875 136.992188 215.921875 C 137.71875 214.417969 139.542969 213.777344 141.023438 214.511719 C 141.589844 214.78125 154.820312 221.332031 154.820312 235.378906 C 154.820312 237.050781 153.46875 238.402344 151.800781 238.402344 Z M 151.800781 238.402344 " fill-opacity="1" fill-rule="nonzero"/><path fill="#7e09dc" d="M 144.164062 59.894531 C 143.679688 59.894531 143.203125 59.78125 142.757812 59.546875 L 136.691406 56.355469 L 130.625 59.546875 C 129.609375 60.089844 128.378906 59.996094 127.445312 59.316406 C 126.511719 58.640625 126.046875 57.488281 126.242188 56.355469 L 127.402344 49.597656 L 122.5 44.8125 C 121.671875 44.011719 121.378906 42.804688 121.730469 41.710938 C 122.085938 40.621094 123.03125 39.816406 124.167969 39.652344 L 130.949219 38.664062 L 133.984375 32.515625 C 135 30.460938 138.386719 30.460938 139.402344 32.515625 L 142.433594 38.664062 L 149.214844 39.652344 C 150.355469 39.816406 151.300781 40.621094 151.652344 41.710938 C 152.007812 42.804688 151.710938 44.011719 150.886719 44.8125 L 145.980469 49.597656 L 147.144531 56.355469 C 147.339844 57.488281 146.875 58.640625 145.941406 59.316406 C 145.414062 59.699219 144.789062 59.894531 144.164062 59.894531 Z M 136.691406 49.910156 C 137.175781 49.910156 137.660156 50.03125 138.097656 50.261719 L 140.152344 51.339844 L 139.753906 49.054688 C 139.589844 48.070312 139.914062 47.070312 140.628906 46.375 L 142.285156 44.753906 L 139.992188 44.425781 C 139.011719 44.277344 138.15625 43.664062 137.71875 42.769531 L 136.691406 40.683594 L 135.664062 42.769531 C 135.230469 43.664062 134.375 44.277344 133.394531 44.425781 L 131.097656 44.753906 L 132.757812 46.375 C 133.46875 47.070312 133.792969 48.070312 133.628906 49.054688 L 133.234375 51.339844 L 135.289062 50.261719 C 135.722656 50.03125 136.207031 49.910156 136.691406 49.910156 Z M 136.691406 49.910156 " fill-opacity="1" fill-rule="nonzero"/><path fill="#7e09dc" d="M 313.371094 374.410156 C 312.886719 374.410156 312.40625 374.296875 311.964844 374.058594 L 305.898438 370.871094 L 299.84375 374.058594 C 298.828125 374.597656 297.589844 374.515625 296.65625 373.828125 C 295.730469 373.15625 295.257812 372.011719 295.453125 370.875 L 296.609375 364.113281 L 291.707031 359.328125 C 290.878906 358.527344 290.585938 357.320312 290.9375 356.226562 C 291.292969 355.128906 292.242188 354.332031 293.382812 354.167969 L 300.160156 353.1875 L 303.1875 347.035156 C 303.695312 346.003906 304.746094 345.347656 305.898438 345.347656 C 307.046875 345.347656 308.097656 346.003906 308.605469 347.03125 L 311.644531 353.1875 L 318.414062 354.167969 C 319.554688 354.332031 320.503906 355.128906 320.859375 356.230469 C 321.210938 357.320312 320.917969 358.527344 320.089844 359.332031 L 315.1875 364.113281 L 316.347656 370.871094 C 316.542969 372.007812 316.078125 373.15625 315.144531 373.832031 C 314.621094 374.214844 313.996094 374.410156 313.371094 374.410156 Z M 305.898438 364.425781 C 306.382812 364.425781 306.867188 364.542969 307.300781 364.773438 L 309.355469 365.855469 L 308.960938 363.570312 C 308.796875 362.585938 309.121094 361.585938 309.835938 360.890625 L 311.488281 359.277344 L 309.207031 358.945312 C 308.222656 358.804688 307.375 358.183594 306.929688 357.292969 L 305.902344 355.207031 L 304.878906 357.285156 C 304.441406 358.183594 303.585938 358.804688 302.597656 358.945312 L 300.308594 359.277344 L 301.960938 360.886719 C 302.675781 361.585938 303 362.582031 302.835938 363.5625 L 302.441406 365.855469 L 304.488281 364.773438 C 304.929688 364.542969 305.414062 364.425781 305.898438 364.425781 Z M 305.898438 364.425781 " fill-opacity="1" fill-rule="nonzero"/><path fill="#7e09dc" d="M 384.457031 278.226562 L 372.371094 278.226562 C 370.703125 278.226562 369.351562 276.871094 369.351562 275.199219 C 369.351562 273.527344 370.703125 272.175781 372.371094 272.175781 L 384.457031 272.175781 C 386.128906 272.175781 387.480469 273.527344 387.480469 275.199219 C 387.480469 276.871094 386.128906 278.226562 384.457031 278.226562 Z M 384.457031 278.226562 " fill-opacity="1" fill-rule="nonzero"/><path fill="#7e09dc" d="M 27.917969 362.902344 C 26.246094 362.902344 24.894531 361.550781 24.894531 359.878906 L 24.894531 335.683594 C 24.894531 334.011719 26.246094 332.660156 27.917969 332.660156 C 29.585938 332.660156 30.9375 334.011719 30.9375 335.683594 L 30.9375 359.878906 C 30.9375 361.550781 29.585938 362.902344 27.917969 362.902344 Z M 27.917969 362.902344 " fill-opacity="1" fill-rule="nonzero"/><path fill="#7e09dc" d="M 33.960938 350.804688 L 21.875 350.804688 C 20.203125 350.804688 18.851562 349.453125 18.851562 347.78125 C 18.851562 346.109375 20.203125 344.757812 21.875 344.757812 L 33.960938 344.757812 C 35.628906 344.757812 36.980469 346.109375 36.980469 347.78125 C 36.980469 349.453125 35.628906 350.804688 33.960938 350.804688 Z M 33.960938 350.804688 " fill-opacity="1" fill-rule="nonzero"/><path fill="#7e09dc" d="M 293.8125 84.679688 C 292.140625 84.679688 290.792969 83.324219 290.792969 81.652344 L 290.792969 57.460938 C 290.792969 55.789062 292.140625 54.4375 293.8125 54.4375 C 295.484375 54.4375 296.832031 55.789062 296.832031 57.460938 L 296.832031 81.652344 C 296.832031 83.324219 295.484375 84.679688 293.8125 84.679688 Z M 293.8125 84.679688 " fill-opacity="1" fill-rule="nonzero"/><path fill="#7e09dc" d="M 299.855469 72.582031 L 287.769531 72.582031 C 286.097656 72.582031 284.746094 71.230469 284.746094 69.558594 C 284.746094 67.886719 286.097656 66.53125 287.769531 66.53125 L 299.855469 66.53125 C 301.523438 66.53125 302.875 67.886719 302.875 69.558594 C 302.875 71.230469 301.523438 72.582031 299.855469 72.582031 Z M 299.855469 72.582031 " fill-opacity="1" fill-rule="nonzero"/></svg>