<svg xmlns="http://www.w3.org/2000/svg" xmlns:xlink="http://www.w3.org/1999/xlink" width="500" zoomAndPan="magnify" viewBox="0 0 375 374.999991" height="500" preserveAspectRatio="xMidYMid meet" version="1.0"><defs><clipPath id="id1"><path d="M 296 297 L 373.566406 297 L 373.566406 375 L 296 375 Z M 296 297 " clip-rule="nonzero"/></clipPath></defs><path fill="#7e09dc" d="M 86.476562 39.347656 C 86.476562 32.539062 92.023438 27.023438 98.800781 27.023438 C 105.609375 27.023438 111.15625 32.539062 111.15625 39.347656 C 111.15625 46.15625 105.609375 51.671875 98.800781 51.671875 C 92.023438 51.671875 86.476562 46.15625 86.476562 39.347656 Z M 279.0625 80.636719 C 280.359375 85.949219 282.683594 97.078125 283.878906 110.796875 C 272.089844 107.042969 259.367188 103.390625 237.246094 103.390625 C 213.695312 103.390625 200.773438 107.542969 188.285156 111.527344 C 179.515625 114.316406 171.042969 116.976562 159.054688 118.335938 L 132.3125 80.636719 Z M 307.828125 153.015625 L 310.652344 147.898438 L 313.441406 153.015625 C 320.75 166.402344 331.679688 177.328125 345.066406 184.636719 L 350.179688 187.460938 L 345.066406 190.25 C 331.710938 197.558594 320.75 208.484375 313.441406 221.871094 L 310.652344 226.988281 L 307.828125 221.871094 C 300.523438 208.484375 289.59375 197.558594 276.207031 190.25 L 271.09375 187.460938 L 276.207031 184.636719 C 289.59375 177.328125 300.523438 166.402344 307.828125 153.015625 Z M 195.65625 219.945312 C 163.769531 219.945312 140.21875 210.28125 125.703125 191.179688 C 111.320312 172.246094 107.734375 146.804688 108 124.78125 C 116.402344 126.839844 127.03125 128.566406 142.144531 128.566406 C 147.59375 128.566406 152.410156 128.335938 156.859375 127.9375 C 156.859375 127.9375 156.859375 127.9375 156.894531 127.9375 C 171.609375 126.640625 181.539062 123.484375 191.140625 120.429688 C 203.496094 116.445312 215.15625 112.722656 237.277344 112.722656 C 259.433594 112.722656 271.09375 116.476562 283.449219 120.429688 L 284.511719 120.761719 C 285.144531 137.304688 283.679688 156.171875 276.9375 172.878906 C 276.871094 173.042969 276.90625 173.210938 276.871094 173.34375 C 275.210938 174.4375 273.515625 175.503906 271.757812 176.464844 L 259.132812 183.339844 C 257.640625 184.171875 256.710938 185.734375 256.710938 187.460938 C 256.710938 189.152344 257.640625 190.714844 259.132812 191.546875 L 263.816406 194.101562 C 248.902344 210.746094 224.988281 219.945312 195.65625 219.945312 Z M 113.316406 80.636719 L 120.886719 80.636719 L 148.160156 119.101562 C 146.230469 119.167969 144.273438 119.234375 142.113281 119.234375 C 126.800781 119.234375 116.667969 117.441406 108.363281 115.246094 C 109.328125 99.503906 111.953125 86.515625 113.316406 80.636719 Z M 120.488281 39.347656 C 120.488281 27.390625 110.757812 17.691406 98.800781 17.691406 C 96.007812 17.691406 93.351562 18.253906 90.894531 19.21875 L 80.03125 3.972656 C 78.535156 1.847656 75.648438 1.382812 73.554688 2.84375 C 71.429688 4.339844 70.964844 7.261719 72.425781 9.355469 L 83.152344 24.46875 C 79.46875 28.355469 77.140625 33.570312 77.140625 39.347656 C 77.140625 51.304688 86.875 61.003906 98.800781 61.003906 C 101.355469 61.003906 103.75 60.507812 106.007812 59.675781 L 114.246094 71.300781 L 109.660156 71.300781 C 107.566406 71.300781 105.742188 72.699219 105.175781 74.722656 C 104.3125 77.847656 84.183594 151.953125 118.265625 196.792969 C 133.976562 217.453125 158.65625 228.25 191.507812 229.113281 L 191.507812 365.667969 L 158.324219 365.667969 C 155.730469 365.667969 153.640625 367.757812 153.640625 370.351562 C 153.640625 372.90625 155.730469 375 158.324219 375 L 234.054688 375 C 236.648438 375 238.738281 372.90625 238.738281 370.351562 C 238.738281 367.757812 236.648438 365.667969 234.054688 365.667969 L 200.839844 365.667969 L 200.839844 229.179688 C 231.5 228.082031 256.578125 217.421875 272.289062 198.785156 C 283.8125 205.199219 293.28125 214.730469 299.660156 226.355469 L 306.535156 238.980469 C 307.363281 240.441406 308.925781 241.371094 310.652344 241.371094 C 312.347656 241.371094 313.910156 240.441406 314.738281 238.980469 L 321.613281 226.355469 C 328.089844 214.566406 337.722656 204.898438 349.550781 198.421875 L 362.136719 191.546875 C 363.632812 190.714844 364.5625 189.152344 364.5625 187.460938 C 364.5625 185.734375 363.632812 184.171875 362.136719 183.375 L 349.550781 176.464844 C 337.722656 170.023438 328.089844 160.355469 321.613281 148.5625 L 314.738281 135.941406 C 313.109375 132.953125 308.195312 132.953125 306.535156 135.941406 L 299.660156 148.5625 C 297 153.378906 293.8125 157.796875 290.191406 161.816406 C 300.089844 121.09375 287.765625 76.78125 287.203125 74.691406 C 286.605469 72.699219 284.777344 71.300781 282.71875 71.300781 L 125.703125 71.300781 L 113.980469 54.792969 C 117.964844 50.839844 120.488281 45.394531 120.488281 39.347656 " fill-opacity="1" fill-rule="nonzero"/><g clip-path="url(#id1)"><path fill="#7e09dc" d="M 358.019531 336.734375 C 348.652344 341.851562 340.980469 349.523438 335.832031 358.890625 L 335.199219 360.050781 L 334.601562 358.890625 C 329.453125 349.523438 321.78125 341.851562 312.414062 336.734375 L 311.285156 336.105469 L 312.414062 335.503906 C 321.8125 330.355469 329.453125 322.683594 334.601562 313.316406 L 335.199219 312.1875 L 335.832031 313.316406 C 340.980469 322.71875 348.652344 330.355469 358.019531 335.503906 L 359.148438 336.105469 Z M 371.105469 332.019531 L 362.503906 327.300781 C 354.699219 323.015625 348.289062 316.640625 344.035156 308.832031 L 339.320312 300.230469 C 337.65625 297.242188 332.742188 297.242188 331.113281 300.230469 L 326.398438 308.832031 C 322.144531 316.640625 315.734375 323.015625 307.929688 327.300781 L 299.328125 332.019531 C 297.832031 332.847656 296.902344 334.410156 296.902344 336.105469 C 296.902344 337.796875 297.832031 339.390625 299.328125 340.1875 L 307.929688 344.90625 C 315.734375 349.191406 322.144531 355.570312 326.398438 363.40625 L 331.113281 372.011719 C 331.945312 373.503906 333.507812 374.433594 335.199219 374.433594 C 336.925781 374.433594 338.488281 373.503906 339.320312 372.011719 L 344.035156 363.40625 C 348.289062 355.570312 354.699219 349.191406 362.503906 344.90625 L 371.105469 340.1875 C 372.601562 339.390625 373.53125 337.796875 373.53125 336.105469 C 373.53125 334.410156 372.601562 332.847656 371.105469 332.019531 " fill-opacity="1" fill-rule="nonzero"/></g><path fill="#7e09dc" d="M 16.789062 168.0625 C 26.1875 162.945312 33.859375 155.273438 38.976562 145.875 L 39.605469 144.742188 L 40.238281 145.875 C 45.355469 155.273438 53.027344 162.945312 62.394531 168.0625 L 63.523438 168.691406 L 62.394531 169.289062 C 53.027344 174.40625 45.355469 182.113281 40.238281 191.480469 L 39.605469 192.609375 L 38.976562 191.480469 C 33.859375 182.113281 26.1875 174.40625 16.789062 169.289062 L 15.660156 168.691406 Z M 3.699219 172.777344 L 12.335938 177.496094 C 20.140625 181.746094 26.519531 188.15625 30.804688 195.964844 L 35.523438 204.566406 C 36.320312 206.0625 37.914062 206.992188 39.605469 206.992188 C 41.300781 206.992188 42.894531 206.0625 43.691406 204.566406 L 48.410156 195.964844 C 52.660156 188.15625 59.070312 181.746094 66.878906 177.496094 L 75.480469 172.777344 C 77.007812 171.949219 77.9375 170.386719 77.9375 168.691406 C 77.9375 166.964844 77.007812 165.40625 75.480469 164.605469 L 66.878906 159.890625 C 59.070312 155.605469 52.660156 149.226562 48.410156 141.421875 L 43.691406 132.785156 C 42.894531 131.292969 41.300781 130.359375 39.605469 130.359375 C 37.914062 130.359375 36.320312 131.292969 35.523438 132.785156 L 30.804688 141.421875 C 26.519531 149.226562 20.140625 155.605469 12.335938 159.890625 L 3.699219 164.605469 C 2.207031 165.40625 1.277344 166.964844 1.277344 168.691406 C 1.277344 170.386719 2.207031 171.949219 3.699219 172.777344 " fill-opacity="1" fill-rule="nonzero"/><path fill="#7e09dc" d="M 303.078125 38.351562 C 312.445312 33.238281 320.121094 25.5625 325.234375 16.195312 L 325.867188 15.066406 L 326.496094 16.195312 C 331.613281 25.5625 339.285156 33.238281 348.652344 38.351562 L 349.78125 38.984375 L 348.652344 39.613281 C 339.285156 44.730469 331.613281 52.402344 326.496094 61.769531 L 325.867188 62.898438 L 325.234375 61.769531 C 320.121094 52.402344 312.445312 44.730469 303.078125 39.613281 L 301.949219 38.984375 Z M 289.960938 43.070312 L 298.59375 47.785156 C 306.402344 52.070312 312.777344 58.449219 317.0625 66.253906 L 321.78125 74.890625 C 322.578125 76.382812 324.171875 77.316406 325.867188 77.316406 C 327.558594 77.316406 329.15625 76.382812 329.953125 74.890625 L 334.667969 66.253906 C 338.953125 58.449219 345.332031 52.070312 353.136719 47.785156 L 361.773438 43.070312 C 363.269531 42.238281 364.199219 40.675781 364.199219 38.984375 C 364.199219 37.289062 363.269531 35.695312 361.773438 34.898438 L 353.136719 30.179688 C 345.332031 25.894531 338.953125 19.519531 334.667969 11.710938 L 329.953125 3.109375 C 328.324219 0.0859375 323.410156 0.0859375 321.78125 3.109375 L 317.0625 11.710938 C 312.777344 19.519531 306.402344 25.894531 298.59375 30.179688 L 289.960938 34.898438 C 288.464844 35.695312 287.535156 37.289062 287.535156 38.984375 C 287.535156 40.675781 288.464844 42.238281 289.960938 43.070312 " fill-opacity="1" fill-rule="nonzero"/><path fill="#7e09dc" d="M 21.40625 299.796875 C 35.421875 292.125 46.847656 280.664062 54.519531 266.714844 L 57.675781 260.933594 L 60.800781 266.714844 C 68.472656 280.664062 79.898438 292.160156 93.917969 299.796875 L 99.664062 302.921875 L 93.917969 306.074219 C 79.898438 313.714844 68.472656 325.175781 60.800781 339.191406 L 57.675781 344.90625 L 54.519531 339.191406 C 46.847656 325.175781 35.421875 313.714844 21.40625 306.074219 L 15.660156 302.921875 Z M 3.699219 307.039062 L 16.953125 314.28125 C 29.375 321.054688 39.539062 331.222656 46.351562 343.644531 L 53.558594 356.898438 C 54.386719 358.390625 55.949219 359.320312 57.675781 359.320312 C 59.371094 359.320312 60.933594 358.390625 61.761719 356.898438 L 69.003906 343.644531 C 75.78125 331.222656 85.945312 321.054688 98.398438 314.28125 L 111.621094 307.039062 C 113.113281 306.207031 114.046875 304.648438 114.046875 302.921875 C 114.046875 301.226562 113.113281 299.664062 111.621094 298.835938 L 98.398438 291.625 C 85.945312 284.816406 75.78125 274.652344 69.003906 262.230469 L 61.761719 248.976562 C 60.136719 245.988281 55.21875 245.988281 53.558594 248.976562 L 46.351562 262.230469 C 39.539062 274.652344 29.375 284.816406 16.953125 291.625 L 3.699219 298.835938 C 2.207031 299.664062 1.277344 301.226562 1.277344 302.921875 C 1.277344 304.648438 2.207031 306.207031 3.699219 307.039062 " fill-opacity="1" fill-rule="nonzero"/><path fill="#7e09dc" d="M 261.359375 40.144531 C 263.949219 40.144531 266.042969 38.050781 266.042969 35.496094 L 266.042969 25.199219 L 276.308594 25.199219 C 278.898438 25.199219 280.957031 23.136719 280.957031 20.546875 C 280.957031 17.988281 278.898438 15.898438 276.308594 15.898438 L 266.042969 15.898438 L 266.042969 5.601562 C 266.042969 3.042969 263.949219 0.949219 261.359375 0.949219 C 258.800781 0.949219 256.710938 3.042969 256.710938 5.601562 L 256.710938 15.898438 L 246.445312 15.898438 C 243.855469 15.898438 241.761719 17.988281 241.761719 20.546875 C 241.761719 23.136719 243.855469 25.199219 246.445312 25.199219 L 256.710938 25.199219 L 256.710938 35.496094 C 256.710938 38.050781 258.800781 40.144531 261.359375 40.144531 " fill-opacity="1" fill-rule="nonzero"/><path fill="#7e09dc" d="M 16.222656 29.449219 L 16.222656 39.714844 L 5.925781 39.714844 C 3.367188 39.714844 1.277344 41.804688 1.277344 44.363281 C 1.277344 46.953125 3.367188 49.046875 5.925781 49.046875 L 16.222656 49.046875 L 16.222656 59.3125 C 16.222656 61.902344 18.316406 63.960938 20.875 63.960938 C 23.464844 63.960938 25.558594 61.902344 25.558594 59.3125 L 25.558594 49.046875 L 35.820312 49.046875 C 38.410156 49.046875 40.472656 46.953125 40.472656 44.363281 C 40.472656 41.804688 38.410156 39.714844 35.820312 39.714844 L 25.558594 39.714844 L 25.558594 29.449219 C 25.558594 26.859375 23.464844 24.765625 20.875 24.765625 C 18.316406 24.765625 16.222656 26.859375 16.222656 29.449219 " fill-opacity="1" fill-rule="nonzero"/><path fill="#7e09dc" d="M 143.375 293.585938 C 145.964844 293.585938 148.027344 291.492188 148.027344 288.9375 L 148.027344 278.640625 L 158.324219 278.640625 C 160.878906 278.640625 162.972656 276.546875 162.972656 273.988281 C 162.972656 271.429688 160.878906 269.339844 158.324219 269.339844 L 148.027344 269.339844 L 148.027344 259.042969 C 148.027344 256.484375 145.964844 254.390625 143.375 254.390625 C 140.785156 254.390625 138.691406 256.484375 138.691406 259.042969 L 138.691406 269.339844 L 128.429688 269.339844 C 125.871094 269.339844 123.777344 271.429688 123.777344 273.988281 C 123.777344 276.546875 125.871094 278.640625 128.429688 278.640625 L 138.691406 278.640625 L 138.691406 288.9375 C 138.691406 291.492188 140.785156 293.585938 143.375 293.585938 " fill-opacity="1" fill-rule="nonzero"/><path fill="#7e09dc" d="M 256.511719 305.578125 C 259.066406 305.578125 261.160156 303.484375 261.160156 300.925781 L 261.160156 290.628906 L 271.425781 290.628906 C 274.015625 290.628906 276.109375 288.570312 276.109375 285.980469 C 276.109375 283.390625 274.015625 281.296875 271.425781 281.296875 L 261.160156 281.296875 L 261.160156 271.03125 C 261.160156 268.441406 259.066406 266.347656 256.511719 266.347656 C 253.917969 266.347656 251.828125 268.441406 251.828125 271.03125 L 251.828125 281.296875 L 241.5625 281.296875 C 238.972656 281.296875 236.914062 283.390625 236.914062 285.980469 C 236.914062 288.570312 238.972656 290.628906 241.5625 290.628906 L 251.828125 290.628906 L 251.828125 300.925781 C 251.828125 303.484375 253.917969 305.578125 256.511719 305.578125 " fill-opacity="1" fill-rule="nonzero"/></svg>