<svg xmlns="http://www.w3.org/2000/svg" xmlns:xlink="http://www.w3.org/1999/xlink" width="500" zoomAndPan="magnify" viewBox="0 0 375 374.999991" height="500" preserveAspectRatio="xMidYMid meet" version="1.0"><defs><filter x="0%" y="0%" width="100%" height="100%" id="id1"><feColorMatrix values="0 0 0 0 1 0 0 0 0 1 0 0 0 0 1 0 0 0 1 0" color-interpolation-filters="sRGB"/></filter><g/><mask id="id2"><g filter="url(#id1)"><rect x="-37.5" width="450" fill="#000000" y="-37.499999" height="449.999989" fill-opacity="0.8588"/></g></mask><clipPath id="id3"><path d="M 0.121094 0.199219 L 319.320312 0.199219 L 319.320312 295.398438 L 0.121094 295.398438 Z M 0.121094 0.199219 " clip-rule="nonzero"/></clipPath><clipPath id="id4"><rect x="0" width="320" y="0" height="296"/></clipPath></defs><g mask="url(#id2)"><g transform="matrix(1, 0, 0, 1, 33, 37)"><g clip-path="url(#id4)"><g clip-path="url(#id3)"><path fill="#c2e9ed" d="M 244.199219 274.578125 C 188.941406 306.578125 115.167969 300.503906 63.363281 263.167969 C 28.890625 238.332031 -1.921875 202.441406 0.25 158.675781 C 0.773438 148.710938 2.164062 138.867188 4.421875 129.148438 C 6.679688 119.425781 9.765625 109.976562 13.6875 100.800781 C 25.695312 72.566406 45.140625 47.441406 70.085938 29.808594 C 156.453125 -31.1875 286.859375 5.839844 314.710938 110.871094 C 331.082031 172.585938 299.460938 242.574219 244.199219 274.578125 Z M 244.199219 274.578125 " fill-opacity="1" fill-rule="nonzero"/></g></g></g></g><g fill="#1c2120" fill-opacity="1"><g transform="translate(79.186188, 105.208723)"><g><path d="M 28.816406 48.589844 C 28.605469 48.589844 28.394531 48.589844 28.1875 48.589844 C 25.660156 48.589844 24.714844 48.484375 24.714844 45.960938 C 24.714844 43.015625 27.871094 38.28125 29.34375 36.390625 C 34.179688 29.972656 35.757812 29.027344 41.4375 23.664062 L 47.117188 18.613281 C 47.851562 18.089844 48.378906 17.773438 49.007812 17.144531 C 49.957031 16.511719 50.269531 15.984375 51.324219 15.671875 C 51.847656 21.664062 52.269531 24.925781 49.007812 31.445312 C 48.484375 32.8125 47.535156 33.96875 46.800781 35.335938 C 45.855469 36.808594 45.117188 37.652344 43.960938 39.019531 C 41.121094 42.804688 33.65625 48.589844 28.816406 48.589844 Z M 0 -12.515625 C 0 -6.519531 2.207031 -2.3125 6.730469 -0.632812 C 11.464844 1.15625 17.144531 0.945312 23.769531 1.050781 L 32.289062 1.683594 C 40.59375 2.628906 46.167969 4.734375 49.957031 11.882812 L 41.542969 18.824219 C 35.863281 23.769531 30.921875 28.082031 26.292969 34.496094 C 23.136719 38.703125 21.347656 42.066406 21.347656 47.222656 C 21.347656 51.636719 26.292969 52.058594 29.238281 52.058594 C 39.648438 52.058594 55.425781 35.230469 55.425781 20.402344 C 55.425781 17.773438 54.898438 15.460938 54.371094 13.25 C 55.214844 11.988281 63.101562 5.890625 65.3125 4.101562 L 72.042969 -1.367188 C 76.351562 -5.574219 79.929688 -8.414062 84.558594 -12.9375 C 89.289062 -17.667969 87.394531 -14.933594 87.394531 -17.667969 C 86.871094 -17.773438 86.449219 -17.984375 85.925781 -17.984375 C 85.082031 -17.984375 84.136719 -17.351562 81.71875 -14.828125 C 80.351562 -13.460938 79.089844 -12.621094 77.71875 -11.253906 L 69.621094 -4.101562 C 64.890625 -0.316406 57.316406 6.519531 52.691406 9.570312 C 51.535156 5.152344 44.800781 1.050781 40.699219 -0.210938 C 33.339844 -2.628906 28.5 -2 21.035156 -2.417969 C 15.355469 -2.628906 6.519531 -2.417969 4.523438 -7.78125 C 3.46875 -10.832031 3.890625 -13.882812 4.3125 -17.144531 C 5.257812 -22.402344 8.730469 -32.078125 11.777344 -36.808594 C 13.777344 -40.492188 14.933594 -42.804688 17.773438 -47.117188 L 30.183594 -61.945312 C 31.128906 -63.101562 31.972656 -63.523438 33.023438 -64.46875 C 34.707031 -66.152344 37.441406 -67.835938 39.4375 -69.097656 C 42.277344 -70.675781 45.328125 -71.832031 48.273438 -71.832031 C 51.636719 -71.832031 54.6875 -70.359375 56.792969 -66.363281 C 61.207031 -57.84375 59.421875 -45.855469 57.949219 -36.914062 C 57.421875 -34.8125 53.847656 -22.402344 57.105469 -22.402344 C 59.421875 -22.402344 59.839844 -25.242188 60.578125 -28.5 C 62.578125 -35.96875 64.574219 -44.800781 64.574219 -53.109375 C 64.574219 -63.945312 59.945312 -75.511719 49.957031 -76.25 C 39.648438 -76.25 32.390625 -70.253906 25.347656 -63.417969 C 21.347656 -59.210938 15.671875 -52.269531 12.9375 -47.328125 C 6.835938 -37.757812 0 -23.769531 0 -12.515625 Z M 0 -12.515625 "/></g></g></g><g fill="#1c2120" fill-opacity="1"><g transform="translate(162.889551, 105.208723)"><g><path d="M 0 -10.621094 C 0 -6.835938 0.316406 -5.046875 4.207031 -5.046875 C 7.257812 -5.046875 10.515625 -14.933594 12.515625 -16.300781 C 12.515625 -11.777344 15.878906 -6.308594 21.140625 -6.308594 C 22.925781 -6.308594 24.925781 -6.941406 27.027344 -8.414062 L 30.183594 -10.9375 C 35.546875 -16.089844 34.917969 -18.71875 33.339844 -18.71875 C 32.707031 -18.71875 31.972656 -18.40625 31.445312 -17.667969 C 29.972656 -16.089844 29.65625 -15.144531 27.660156 -13.355469 C 25.347656 -11.042969 23.136719 -9.78125 21.140625 -9.78125 C 18.929688 -9.78125 17.039062 -11.464844 16.195312 -15.25 C 15.25 -19.246094 17.039062 -23.980469 13.355469 -23.980469 C 11.988281 -23.980469 7.675781 -15.039062 5.574219 -11.777344 L 4.734375 -10.515625 C 4.207031 -9.886719 4.523438 -10.308594 4.207031 -9.992188 C 4.207031 -13.460938 5.679688 -17.457031 7.046875 -19.667969 C 10.097656 -24.925781 12.199219 -26.398438 13.777344 -26.398438 C 15.777344 -26.398438 17.039062 -23.980469 18.511719 -23.980469 C 21.246094 -23.980469 18.511719 -29.972656 13.566406 -29.972656 C 6.203125 -29.972656 0 -16.617188 0 -10.621094 Z M 0 -10.621094 "/></g></g></g><g fill="#1c2120" fill-opacity="1"><g transform="translate(193.384492, 105.208723)"><g><path d="M 2.945312 -5.46875 C 7.046875 -5.46875 11.253906 -18.929688 14.722656 -21.246094 C 15.671875 -19.246094 14.199219 -15.039062 16.300781 -8.730469 C 17.246094 -5.890625 19.035156 -3.050781 22.296875 -3.050781 C 22.925781 -3.050781 23.558594 -3.15625 24.292969 -3.367188 C 26.714844 -3.996094 30.078125 -8.203125 31.550781 -10.097656 C 32.183594 -10.9375 38.386719 -18.71875 34.285156 -18.71875 C 32.390625 -18.71875 26.820312 -6.203125 22.613281 -6.203125 C 18.71875 -6.203125 18.511719 -15.566406 18.511719 -18.195312 L 17.878906 -24.082031 C 17.351562 -25.242188 16.617188 -25.765625 15.878906 -25.765625 C 13.355469 -25.765625 10.203125 -20.402344 9.570312 -19.246094 L 4.523438 -11.570312 C 4.523438 -19.773438 11.359375 -29.65625 6.730469 -29.65625 C 2.734375 -29.65625 -3.785156 -5.46875 2.945312 -5.46875 Z M 2.945312 -5.46875 "/></g></g></g><g fill="#1c2120" fill-opacity="1"><g transform="translate(224.93099, 105.208723)"><g><path d="M 3.679688 -7.675781 C 3.679688 -14.199219 5.890625 -21.246094 9.570312 -25.765625 C 10.621094 -27.238281 11.777344 -28.605469 14.199219 -28.921875 C 14.09375 -27.34375 6.414062 -6.730469 4.101562 -6.730469 C 3.785156 -6.730469 3.679688 -6.941406 3.679688 -7.675781 Z M 15.671875 -31.761719 C 14.09375 -31.761719 14.722656 -32.078125 13.566406 -32.078125 C 3.996094 -32.078125 -5.152344 -3.050781 3.679688 -3.050781 C 7.675781 -3.050781 9.675781 -8.308594 11.148438 -11.570312 L 14.828125 -20.507812 C 15.144531 -21.453125 15.039062 -21.246094 15.671875 -21.875 C 15.671875 -17.667969 13.671875 17.667969 18.40625 17.667969 C 22.191406 17.667969 19.5625 15.355469 19.457031 8.519531 C 19.246094 -9.148438 17.878906 -27.660156 23.03125 -44.800781 C 23.664062 -47.328125 27.554688 -57.84375 23.664062 -57.84375 C 23.558594 -57.84375 23.347656 -57.738281 23.136719 -57.738281 C 20.613281 -57.210938 19.457031 -49.746094 18.929688 -47.535156 L 16.722656 -35.652344 C 16.300781 -34.285156 15.671875 -33.234375 15.671875 -31.761719 Z M 15.671875 -31.761719 "/></g></g></g><g fill="#1c2120" fill-opacity="1"><g transform="translate(248.485707, 105.208723)"><g><path d="M 3.050781 42.171875 C 1.367188 42.171875 -0.316406 41.542969 -1.15625 40.492188 C -5.363281 35.96875 -1.15625 27.449219 1.367188 23.875 C 3.996094 19.878906 6.519531 16.617188 9.886719 13.25 C 10.726562 12.515625 11.148438 11.675781 11.777344 11.148438 L 22.085938 2 C 22.925781 1.367188 23.558594 0.945312 24.398438 0.421875 C 23.875 6.941406 19.035156 25.554688 15.878906 31.339844 C 13.355469 35.863281 9.042969 42.171875 3.050781 42.171875 Z M 5.46875 -9.253906 C 5.46875 -19.351562 11.675781 -26.398438 7.046875 -26.398438 C 3.574219 -26.398438 1.050781 -15.878906 1.050781 -11.359375 C 1.050781 -7.675781 2.734375 -5.363281 5.046875 -5.363281 C 6.203125 -5.363281 7.46875 -5.996094 8.730469 -7.152344 C 11.570312 -9.78125 14.828125 -15.144531 16.933594 -18.511719 C 18.613281 -20.929688 26.503906 -34.707031 27.449219 -35.335938 C 27.449219 -23.242188 26.503906 -16.089844 25.242188 -5.363281 C 25.136719 -3.46875 24.1875 -3.46875 22.296875 -1.789062 C 21.453125 -1.15625 21.035156 -0.945312 20.296875 -0.316406 C 11.148438 6.203125 -5.890625 23.664062 -5.890625 35.230469 C -5.890625 41.542969 -1.894531 45.222656 3.261719 45.222656 C 10.203125 45.222656 16.195312 38.914062 19.246094 33.128906 C 24.398438 24.714844 27.871094 8.730469 29.34375 -1.683594 C 29.554688 -3.15625 29.34375 -3.367188 30.394531 -4.101562 C 34.496094 -6.941406 38.808594 -9.675781 43.121094 -12.09375 C 44.382812 -12.832031 51.113281 -16.300781 51.113281 -17.878906 C 51.113281 -18.71875 50.691406 -19.035156 50.167969 -19.035156 C 48.589844 -19.035156 45.75 -16.828125 45.117188 -16.40625 L 30.078125 -7.675781 C 30.078125 -10.621094 31.023438 -17.457031 31.023438 -22.714844 L 31.023438 -30.816406 C 31.023438 -32.917969 31.128906 -40.699219 28.921875 -40.699219 C 26.714844 -40.699219 26.714844 -39.964844 25.03125 -37.230469 C 21.347656 -31.023438 10.832031 -11.988281 5.46875 -9.253906 Z M 5.46875 -9.253906 "/></g></g></g><g fill="#1c2120" fill-opacity="1"><g transform="translate(65.350016, 220.446979)"><g/></g></g><g fill="#1c2120" fill-opacity="1"><g transform="translate(89.237182, 220.446979)"><g/></g></g><g fill="#1c2120" fill-opacity="1"><g transform="translate(113.124347, 220.446979)"><g/></g></g><g fill="#1c2120" fill-opacity="1"><g transform="translate(136.994853, 220.446979)"><g><path d="M 33.945312 2.304688 C 33.945312 0.367188 33.484375 -1.015625 33.484375 -4.703125 C 33.484375 -11.160156 35.695312 -28.132812 33.667969 -31.636719 C 33.296875 -32.46875 32.46875 -32.929688 31.546875 -32.929688 C 30.898438 -32.929688 30.253906 -32.746094 29.699219 -32.375 C 27.765625 -31.085938 26.011719 -27.488281 24.8125 -25.179688 C 18.261719 -11.898438 14.667969 5.71875 10.515625 20.847656 L 8.300781 27.488281 C 7.839844 28.5 7.839844 28.964844 6.824219 29.238281 L 5.902344 24.71875 C 3.414062 9.777344 5.535156 -14.851562 7.472656 -28.316406 C 9.132812 -39.476562 10.332031 -46.027344 13.191406 -56.542969 C 13.742188 -58.386719 15.21875 -61.800781 12.636719 -61.800781 C 8.945312 -61.800781 4.335938 -33.574219 4.058594 -31.730469 C 3.226562 -26.011719 2.492188 -20.386719 1.84375 -14.574219 L 0.921875 4.058594 C 0.921875 10.054688 1.476562 32.835938 6.824219 32.835938 C 8.671875 32.835938 9.222656 31.914062 10.054688 30.4375 C 11.714844 26.378906 13.097656 22.414062 14.113281 18.171875 C 15.679688 12.730469 17.0625 6.640625 18.539062 0.832031 C 20.476562 -7.101562 24.71875 -21.675781 29.792969 -28.5 C 30.4375 -29.332031 30.347656 -29.609375 31.453125 -29.886719 C 31.453125 -28.5 31.636719 -27.671875 31.636719 -26.933594 L 30.253906 -8.484375 C 29.976562 -4.425781 29.976562 5.8125 33.945312 5.8125 C 38.832031 5.8125 44.183594 -15.035156 45.75 -19.1875 C 48.242188 -25.273438 49.625 -30.4375 52.667969 -37.171875 C 55.621094 -43.8125 57.28125 -47.59375 61.0625 -53.777344 C 62.445312 -56.171875 64.476562 -59.308594 66.875 -60.507812 C 68.996094 -55.898438 64.566406 -33.023438 63.738281 -27.855469 C 61.707031 -15.773438 60.878906 -7.65625 59.402344 3.964844 L 56.636719 45.105469 C 56.726562 46.210938 56.726562 46.765625 56.820312 48.332031 C 56.910156 49.808594 57.742188 50.730469 58.480469 50.730469 C 59.125 50.730469 59.769531 49.992188 59.769531 48.332031 C 59.769531 44.921875 59.679688 40.675781 59.957031 37.355469 C 61.429688 24.074219 62.078125 11.253906 64.105469 -2.398438 L 69.824219 -40.492188 C 70.285156 -43.628906 74.066406 -63.828125 66.875 -63.828125 C 60.417969 -63.828125 49.808594 -38.1875 47.871094 -33.296875 C 44.183594 -23.890625 41.601562 -15.21875 38.09375 -6.085938 C 37.355469 -3.78125 35.605469 1.292969 33.945312 2.304688 Z M 33.945312 2.304688 "/></g></g></g><g fill="#1c2120" fill-opacity="1"><g transform="translate(207.549632, 220.446979)"><g><path d="M 0 -9.316406 C 0 -5.996094 0.277344 -4.425781 3.691406 -4.425781 C 6.363281 -4.425781 9.222656 -13.097656 10.976562 -14.296875 C 10.976562 -10.332031 13.929688 -5.535156 18.539062 -5.535156 C 20.109375 -5.535156 21.859375 -6.085938 23.707031 -7.378906 L 26.472656 -9.59375 C 31.175781 -14.113281 30.625 -16.417969 29.238281 -16.417969 C 28.6875 -16.417969 28.039062 -16.140625 27.578125 -15.496094 C 26.289062 -14.113281 26.011719 -13.28125 24.257812 -11.714844 C 22.230469 -9.683594 20.292969 -8.578125 18.539062 -8.578125 C 16.601562 -8.578125 14.941406 -10.054688 14.203125 -13.375 C 13.375 -16.878906 14.941406 -21.03125 11.714844 -21.03125 C 10.515625 -21.03125 6.734375 -13.191406 4.890625 -10.332031 L 4.152344 -9.222656 C 3.691406 -8.671875 3.964844 -9.039062 3.691406 -8.761719 C 3.691406 -11.804688 4.980469 -15.3125 6.179688 -17.25 C 8.855469 -21.859375 10.699219 -23.152344 12.082031 -23.152344 C 13.835938 -23.152344 14.941406 -21.03125 16.234375 -21.03125 C 18.632812 -21.03125 16.234375 -26.289062 11.898438 -26.289062 C 5.441406 -26.289062 0 -14.574219 0 -9.316406 Z M 0 -9.316406 "/></g></g></g><g fill="#1c2120" fill-opacity="1"><g transform="translate(234.295893, 220.446979)"><g><path d="M 7.65625 0.367188 C 11.992188 0.367188 15.496094 -3.691406 17.710938 -5.996094 C 19.1875 -7.472656 24.71875 -13.652344 24.71875 -15.402344 C 24.71875 -16.234375 24.445312 -16.511719 24.074219 -16.511719 C 22.320312 -16.511719 17.433594 -9.960938 17.0625 -9.5 C 15.679688 -7.75 10.882812 -2.859375 7.933594 -2.859375 C 5.441406 -2.859375 4.425781 -8.300781 4.425781 -11.070312 C 4.425781 -20.476562 8.117188 -24.628906 3.875 -24.628906 C 2.027344 -24.628906 1.105469 -20.476562 0.832031 -18.539062 C -0.183594 -13.835938 0 -7.472656 2.214844 -3.320312 C 3.226562 -1.566406 5.164062 0.367188 7.65625 0.367188 Z M 4.703125 -36.25 C 4.703125 -34.222656 5.902344 -33.296875 7.195312 -33.296875 C 9.039062 -33.296875 10.976562 -35.328125 9.222656 -38.742188 C 8.671875 -39.753906 8.023438 -40.125 7.378906 -40.125 C 5.996094 -40.125 4.703125 -38.371094 4.703125 -36.25 Z M 4.703125 -36.25 "/></g></g></g><g fill="#1c2120" fill-opacity="1"><g transform="translate(255.323981, 220.446979)"><g><path d="M 2.582031 -4.796875 C 6.179688 -4.796875 9.871094 -16.601562 12.914062 -18.632812 C 13.742188 -16.878906 12.453125 -13.191406 14.296875 -7.65625 C 15.128906 -5.164062 16.695312 -2.675781 19.554688 -2.675781 C 20.109375 -2.675781 20.660156 -2.765625 21.308594 -2.953125 C 23.429688 -3.503906 26.378906 -7.195312 27.671875 -8.855469 C 28.226562 -9.59375 33.667969 -16.417969 30.070312 -16.417969 C 28.410156 -16.417969 23.519531 -5.441406 19.832031 -5.441406 C 16.417969 -5.441406 16.234375 -13.652344 16.234375 -15.957031 L 15.679688 -21.121094 C 15.21875 -22.136719 14.574219 -22.597656 13.929688 -22.597656 C 11.714844 -22.597656 8.945312 -17.894531 8.394531 -16.878906 L 3.964844 -10.144531 C 3.964844 -17.339844 9.960938 -26.011719 5.902344 -26.011719 C 2.398438 -26.011719 -3.320312 -4.796875 2.582031 -4.796875 Z M 2.582031 -4.796875 "/></g></g></g><g fill="#1c2120" fill-opacity="1"><g transform="translate(282.992513, 220.446979)"><g><path d="M 1.105469 15.21875 C 1.105469 11.53125 3.78125 7.378906 5.996094 4.703125 C 7.101562 3.414062 9.316406 0.644531 10.792969 -0.183594 C 10.792969 2.398438 10.882812 4.425781 10.238281 6.550781 C 9.410156 9.59375 7.378906 14.019531 4.890625 15.863281 C 4.242188 16.417969 3.136719 17.15625 2.304688 17.15625 C 1.660156 17.15625 1.105469 16.601562 1.105469 15.21875 Z M 0.277344 -14.941406 C 0.277344 -10.054688 6.734375 -8.484375 9.59375 -3.226562 C 8.210938 -1.015625 -1.84375 6.917969 -1.84375 15.21875 C -1.84375 18.539062 0 20.292969 2.582031 20.292969 C 5.351562 20.292969 8.855469 18.171875 11.53125 13.652344 C 17.710938 3.136719 13.929688 -2.214844 14.296875 -3.503906 C 14.480469 -4.242188 21.03125 -9.132812 22.046875 -9.683594 L 28.316406 -14.019531 C 30.4375 -15.21875 30.625 -16.789062 29.148438 -16.789062 C 28.316406 -16.789062 27.117188 -16.417969 25.550781 -15.3125 L 16.972656 -9.316406 C 15.589844 -8.117188 14.296875 -7.101562 12.820312 -6.085938 C 8.023438 -13.28125 1.105469 -13.003906 5.996094 -18.539062 C 7.378906 -20.109375 7.101562 -19.648438 9.316406 -20.199219 C 9.871094 -22.507812 9.039062 -23.429688 7.75 -23.429688 C 5.074219 -23.429688 0.277344 -19.648438 0.277344 -14.941406 Z M 0.277344 -14.941406 "/></g></g></g><g fill="#1d1824" fill-opacity="1"><g transform="translate(67.715698, 305.394758)"><g><path d="M 3.28125 0 L 3.28125 -25.359375 L 8.28125 -25.359375 C 13.332031 -25.359375 15.859375 -22.820312 15.859375 -17.75 C 15.859375 -12.882812 13.332031 -10.453125 8.28125 -10.453125 L 6.296875 -10.453125 L 6.296875 0 Z M 6.296875 -12.78125 L 8.421875 -12.78125 C 11.367188 -12.78125 12.84375 -14.4375 12.84375 -17.75 C 12.84375 -21.269531 11.28125 -23.03125 8.15625 -23.03125 L 6.296875 -23.03125 Z M 6.296875 -12.78125 "/></g></g></g><g fill="#1d1824" fill-opacity="1"><g transform="translate(89.605767, 305.394758)"><g><path d="M 3.28125 0 L 3.28125 -25.359375 L 6.296875 -25.359375 L 6.296875 -14.578125 L 14.140625 -14.578125 L 14.140625 -25.359375 L 17.140625 -25.359375 L 17.140625 0 L 14.140625 0 L 14.140625 -12.140625 L 6.296875 -12.140625 L 6.296875 0 Z M 3.28125 0 "/></g></g></g><g fill="#1d1824" fill-opacity="1"><g transform="translate(114.471118, 305.394758)"><g><path d="M 1.859375 -12.6875 C 1.859375 -16.375 2.78125 -19.457031 4.625 -21.9375 C 6.476562 -24.425781 8.78125 -25.671875 11.53125 -25.671875 C 14.28125 -25.671875 16.578125 -24.425781 18.421875 -21.9375 C 20.273438 -19.457031 21.203125 -16.375 21.203125 -12.6875 C 21.203125 -8.78125 20.316406 -5.640625 18.546875 -3.265625 C 16.773438 -0.890625 14.4375 0.296875 11.53125 0.296875 C 8.625 0.296875 6.285156 -0.890625 4.515625 -3.265625 C 2.742188 -5.640625 1.859375 -8.78125 1.859375 -12.6875 Z M 5.109375 -12.6875 C 5.109375 -9.53125 5.691406 -6.988281 6.859375 -5.0625 C 8.035156 -3.132812 9.59375 -2.171875 11.53125 -2.171875 C 13.46875 -2.171875 15.019531 -3.132812 16.1875 -5.0625 C 17.363281 -6.988281 17.953125 -9.53125 17.953125 -12.6875 C 17.953125 -15.675781 17.335938 -18.175781 16.109375 -20.1875 C 14.878906 -22.195312 13.351562 -23.203125 11.53125 -23.203125 C 9.707031 -23.203125 8.179688 -22.195312 6.953125 -20.1875 C 5.722656 -18.175781 5.109375 -15.675781 5.109375 -12.6875 Z M 5.109375 -12.6875 "/></g></g></g><g fill="#1d1824" fill-opacity="1"><g transform="translate(141.534121, 305.394758)"><g><path d="M 6.53125 -22.890625 L 0.34375 -22.890625 L 0.34375 -25.359375 L 15.71875 -25.359375 L 15.71875 -22.890625 L 9.53125 -22.890625 L 9.53125 0 L 6.53125 0 Z M 6.53125 -22.890625 "/></g></g></g><g fill="#1d1824" fill-opacity="1"><g transform="translate(162.4437, 305.394758)"><g><path d="M 1.859375 -12.6875 C 1.859375 -16.375 2.78125 -19.457031 4.625 -21.9375 C 6.476562 -24.425781 8.78125 -25.671875 11.53125 -25.671875 C 14.28125 -25.671875 16.578125 -24.425781 18.421875 -21.9375 C 20.273438 -19.457031 21.203125 -16.375 21.203125 -12.6875 C 21.203125 -8.78125 20.316406 -5.640625 18.546875 -3.265625 C 16.773438 -0.890625 14.4375 0.296875 11.53125 0.296875 C 8.625 0.296875 6.285156 -0.890625 4.515625 -3.265625 C 2.742188 -5.640625 1.859375 -8.78125 1.859375 -12.6875 Z M 5.109375 -12.6875 C 5.109375 -9.53125 5.691406 -6.988281 6.859375 -5.0625 C 8.035156 -3.132812 9.59375 -2.171875 11.53125 -2.171875 C 13.46875 -2.171875 15.019531 -3.132812 16.1875 -5.0625 C 17.363281 -6.988281 17.953125 -9.53125 17.953125 -12.6875 C 17.953125 -15.675781 17.335938 -18.175781 16.109375 -20.1875 C 14.878906 -22.195312 13.351562 -23.203125 11.53125 -23.203125 C 9.707031 -23.203125 8.179688 -22.195312 6.953125 -20.1875 C 5.722656 -18.175781 5.109375 -15.675781 5.109375 -12.6875 Z M 5.109375 -12.6875 "/></g></g></g><g fill="#1d1824" fill-opacity="1"><g transform="translate(189.506703, 305.394758)"><g><path d="M 10.828125 -15.015625 L 20.53125 -15.015625 L 20.53125 -3.21875 C 19.238281 -2.132812 17.847656 -1.273438 16.359375 -0.640625 C 14.878906 -0.015625 13.453125 0.296875 12.078125 0.296875 C 9.078125 0.296875 6.660156 -0.890625 4.828125 -3.265625 C 3.003906 -5.640625 2.09375 -8.773438 2.09375 -12.671875 C 2.09375 -16.578125 3.003906 -19.71875 4.828125 -22.09375 C 6.660156 -24.476562 9.078125 -25.671875 12.078125 -25.671875 C 14.523438 -25.671875 16.492188 -24.847656 17.984375 -23.203125 C 19.472656 -21.554688 20.21875 -19.378906 20.21875 -16.671875 L 17.546875 -16.609375 C 17.546875 -18.585938 17.046875 -20.179688 16.046875 -21.390625 C 15.046875 -22.597656 13.722656 -23.203125 12.078125 -23.203125 C 10.066406 -23.203125 8.441406 -22.234375 7.203125 -20.296875 C 5.960938 -18.367188 5.34375 -15.828125 5.34375 -12.671875 C 5.34375 -9.523438 5.960938 -6.988281 7.203125 -5.0625 C 8.441406 -3.132812 10.066406 -2.171875 12.078125 -2.171875 C 13.765625 -2.171875 15.625 -3.015625 17.65625 -4.703125 L 17.65625 -12.578125 L 10.828125 -12.578125 Z M 10.828125 -15.015625 "/></g></g></g><g fill="#1d1824" fill-opacity="1"><g transform="translate(216.400655, 305.394758)"><g><path d="M 3.28125 0 L 3.28125 -25.359375 L 8.28125 -25.359375 C 13.332031 -25.359375 15.859375 -22.820312 15.859375 -17.75 C 15.859375 -14.125 14.125 -11.984375 10.65625 -11.328125 L 16.53125 0 L 13.078125 0 L 7.265625 -11.125 L 6.296875 -11.125 L 6.296875 0 Z M 6.296875 -13.453125 L 8.390625 -13.453125 C 11.359375 -13.453125 12.84375 -14.882812 12.84375 -17.75 C 12.84375 -21.269531 11.28125 -23.03125 8.15625 -23.03125 L 6.296875 -23.03125 Z M 6.296875 -13.453125 "/></g></g></g><g fill="#1d1824" fill-opacity="1"><g transform="translate(238.290724, 305.394758)"><g><path d="M 0.75 0 L 8.828125 -25.359375 L 12 -25.359375 L 20.125 0 L 17.140625 0 L 10.375 -21.203125 L 6.5 -8.796875 L 14.34375 -8.796875 L 15.078125 -6.453125 L 5.75 -6.453125 L 3.71875 0 Z M 0.75 0 "/></g></g></g><g fill="#1d1824" fill-opacity="1"><g transform="translate(263.595606, 305.394758)"><g><path d="M 3.28125 0 L 3.28125 -25.359375 L 8.28125 -25.359375 C 13.332031 -25.359375 15.859375 -22.820312 15.859375 -17.75 C 15.859375 -12.882812 13.332031 -10.453125 8.28125 -10.453125 L 6.296875 -10.453125 L 6.296875 0 Z M 6.296875 -12.78125 L 8.421875 -12.78125 C 11.367188 -12.78125 12.84375 -14.4375 12.84375 -17.75 C 12.84375 -21.269531 11.28125 -23.03125 8.15625 -23.03125 L 6.296875 -23.03125 Z M 6.296875 -12.78125 "/></g></g></g><g fill="#1d1824" fill-opacity="1"><g transform="translate(285.485675, 305.394758)"><g><path d="M 3.28125 0 L 3.28125 -25.359375 L 6.296875 -25.359375 L 6.296875 -14.578125 L 14.140625 -14.578125 L 14.140625 -25.359375 L 17.140625 -25.359375 L 17.140625 0 L 14.140625 0 L 14.140625 -12.140625 L 6.296875 -12.140625 L 6.296875 0 Z M 3.28125 0 "/></g></g></g><g fill="#1d1824" fill-opacity="1"><g transform="translate(310.351026, 305.394758)"><g><path d="M 13.59375 -25.359375 L 16.5 -25.359375 L 10.25 -11.15625 L 10.25 0 L 7.203125 0 L 7.203125 -11.15625 L 0.984375 -25.359375 L 3.859375 -25.359375 L 8.71875 -14.140625 Z M 13.59375 -25.359375 "/></g></g></g></svg>